<svg xmlns="http://www.w3.org/2000/svg" xmlns:xlink="http://www.w3.org/1999/xlink" version="1.1" x="0px" y="0px" viewBox="0 0 512 640" enable-background="new 0 0 512 512" xml:space="preserve"><g><path d="M425.6,432.6c25.5-11.6,41.9-38.2,43-57.2c0-0.4,0-0.7,0-1.1c0-6-3.3-11.2-8.8-13.8c-5.8-2.8-12.7-1.9-17.5,2.4   c-0.9,0.8-1.9,1.6-2.8,2.3c-0.1,0.1-0.1,0.1-0.2,0.1c-0.4,0.3-0.8,0.6-1.2,0.9c-0.2,0.1-0.3,0.2-0.5,0.3c-0.3,0.2-0.6,0.4-1,0.7   c-0.2,0.1-0.4,0.3-0.6,0.4c-0.3,0.2-0.6,0.4-0.9,0.5c-0.2,0.1-0.5,0.3-0.7,0.4c-0.3,0.2-0.5,0.3-0.8,0.5c-0.3,0.1-0.5,0.3-0.8,0.4   c-0.2,0.1-0.5,0.3-0.7,0.4c-0.3,0.1-0.6,0.3-0.8,0.4c-0.2,0.1-0.4,0.2-0.7,0.3c-0.3,0.1-0.6,0.3-0.9,0.4c-0.2,0.1-0.4,0.2-0.7,0.3   c-0.3,0.1-0.6,0.2-0.9,0.4c-0.2,0.1-0.4,0.2-0.6,0.3c-0.3,0.1-0.6,0.2-1,0.3c-0.2,0.1-0.4,0.2-0.6,0.2c-0.3,0.1-0.7,0.2-1,0.3   c-0.2,0.1-0.4,0.1-0.6,0.2c-0.3,0.1-0.7,0.2-1,0.3c-0.2,0.1-0.4,0.1-0.6,0.2c-0.3,0.1-0.7,0.2-1,0.2c-0.2,0-0.4,0.1-0.6,0.1   c-0.4,0.1-0.7,0.1-1.1,0.2c-0.2,0-0.4,0.1-0.6,0.1c-0.4,0.1-0.7,0.1-1.1,0.2c-0.2,0-0.4,0.1-0.6,0.1c-0.4,0.1-0.7,0.1-1.1,0.1   c-0.2,0-0.4,0-0.6,0.1c-0.4,0-0.7,0.1-1.1,0.1c-0.2,0-0.4,0-0.6,0c-0.4,0-0.7,0-1.1,0.1c-0.2,0-0.4,0-0.6,0c-0.4,0-0.7,0-1.1,0   c-0.2,0-0.4,0-0.7,0c-0.4,0-0.7,0-1.1,0c-0.2,0-0.5,0-0.7,0c-0.4,0-0.7,0-1.1-0.1c-0.2,0-0.5,0-0.7,0c-0.4,0-0.7-0.1-1.1-0.1   c-0.2,0-0.5,0-0.7-0.1c-0.4,0-0.7-0.1-1.1-0.1c-0.3,0-0.5-0.1-0.8-0.1c-0.3,0-0.7-0.1-1-0.2c-0.3,0-0.5-0.1-0.8-0.1   c-0.3-0.1-0.7-0.1-1-0.2c-0.3-0.1-0.6-0.1-0.9-0.2c-0.3-0.1-0.6-0.1-1-0.2c-0.3-0.1-0.6-0.1-0.9-0.2c-0.3-0.1-0.6-0.2-0.9-0.2   c-0.3-0.1-0.6-0.2-1-0.3c-0.3-0.1-0.6-0.2-0.9-0.3c-0.3-0.1-0.7-0.2-1-0.3c-0.3-0.1-0.6-0.2-0.9-0.3c-0.4-0.1-0.7-0.2-1.1-0.3   c-0.3-0.1-0.5-0.2-0.8-0.3c-0.4-0.1-0.8-0.3-1.2-0.4c-0.2-0.1-0.5-0.2-0.7-0.3c-0.4-0.2-0.8-0.3-1.3-0.5c-0.2-0.1-0.4-0.2-0.6-0.2   c-0.4-0.1-0.7-0.3-1.1-0.4c-0.2-0.1-0.5-0.2-0.7-0.3c-0.3-0.1-0.6-0.3-0.9-0.4c-0.3-0.1-0.7-0.3-1-0.4c-0.2-0.1-0.4-0.2-0.6-0.3   c-0.5-0.2-1-0.4-1.4-0.7c0,0-0.1,0-0.1,0c-6.3-3-11.8-6.5-15.7-9.2c0.1-0.1,0.1-0.1,0.2-0.2c0.4-0.5,0.9-1,1.3-1.5   c0-0.1,0.1-0.1,0.1-0.2c0.4-0.5,0.9-1,1.3-1.6c0,0,0.1-0.1,0.1-0.2c0.9-1.2,1.8-2.4,2.7-3.6c0-0.1,0.1-0.1,0.1-0.2   c12.6-18.3,18.9-46.5,13-66.5c-3.6-12.4-11.4-20.5-22.4-23.6c12-31.5,20-65.7,22.7-97.7c0-0.4,0.1-0.9,0.1-1.3   c0.1-1.1,0.2-2.2,0.3-3.3c0.1-0.8,0.1-1.5,0.1-2.3c0-0.2,0-0.4,0-0.6c0.1-2,0.2-4,0.3-6c0-0.1,0-0.3,0-0.4c0-0.5,0-1,0-1.5   c0-0.7,0-1.5,0.1-2.2c0-0.8,0-1.6,0-2.4c0-0.5,0-1.1,0-1.6c0-0.9,0-1.9,0-2.8c0-0.4,0-0.8,0-1.2c0-1,0-2.1,0-3.1c0-0.2,0-0.4,0-0.6   c-0.2-9-0.9-17.7-2.2-26c0,0,0,0,0,0c-0.2-1.1-0.3-2.2-0.5-3.2c0-0.2-0.1-0.4-0.1-0.6c-0.2-0.9-0.3-1.9-0.5-2.8   c-0.1-0.4-0.1-0.7-0.2-1.1c-0.2-0.8-0.3-1.6-0.5-2.4c-0.1-0.5-0.2-1.1-0.3-1.6c-0.1-0.6-0.3-1.2-0.4-1.8c-0.2-0.8-0.4-1.6-0.6-2.4   c-0.1-0.3-0.2-0.7-0.2-1c-3.9-15.8-9.8-29.8-17.7-41.6c-19.5-29.2-50.3-45.6-91.7-48.8c-0.1,0-0.3,0-0.4,0   c-1.4-0.1-2.8-0.2-4.2-0.3c-0.3,0-0.6,0-0.9,0c-1.3-0.1-2.6-0.1-3.9-0.1c-0.4,0-0.7,0-1.1,0C259.3,0,257.7,0,256,0c0,0,0,0,0,0   s0,0,0,0c-1.7,0-3.3,0-4.9,0.1c-0.4,0-0.7,0-1.1,0c-1.3,0-2.6,0.1-3.9,0.1c-0.3,0-0.6,0-0.9,0c-1.4,0.1-2.8,0.2-4.2,0.3   c-0.1,0-0.3,0-0.4,0c-41.3,3.2-72.1,19.5-91.7,48.8c-7.9,11.8-13.8,25.8-17.7,41.6c-0.1,0.3-0.2,0.6-0.2,1   c-0.2,0.8-0.4,1.6-0.6,2.4c-0.1,0.6-0.3,1.2-0.4,1.8c-0.1,0.5-0.2,1.1-0.3,1.6c-0.2,0.8-0.3,1.6-0.5,2.4c-0.1,0.4-0.1,0.7-0.2,1.1   c-0.2,0.9-0.3,1.8-0.5,2.8c0,0.2-0.1,0.4-0.1,0.6c-0.2,1.1-0.3,2.1-0.5,3.2c0,0,0,0,0,0.1c-1.2,8.3-1.9,16.9-2.2,26   c0,0.2,0,0.4,0,0.6c0,1,0,2.1,0,3.1c0,0.4,0,0.8,0,1.2c0,0.9,0,1.9,0,2.8c0,0.5,0,1.1,0,1.6c0,0.8,0,1.6,0,2.4c0,0.7,0,1.5,0.1,2.2   c0,0.5,0,1,0,1.5c0,0.1,0,0.3,0,0.4c0.1,2,0.2,4,0.3,6c0,0.2,0,0.4,0,0.6c0,0.8,0.1,1.5,0.1,2.3c0.1,1.1,0.2,2.2,0.3,3.3   c0,0.4,0.1,0.9,0.1,1.3c2.7,32,10.6,66.2,22.7,97.7c-11,3-18.8,11.2-22.4,23.6c-5.9,20,0.5,48.2,13,66.5c0,0.1,0.1,0.1,0.1,0.2   c0.4,0.6,0.8,1.2,1.2,1.7c0,0.1,0.1,0.1,0.1,0.2c0.4,0.6,0.9,1.1,1.3,1.7c0,0.1,0.1,0.1,0.1,0.2c0.4,0.5,0.9,1.1,1.3,1.6   c0,0.1,0.1,0.1,0.1,0.2c0.4,0.5,0.9,1,1.3,1.5c0.1,0.1,0.1,0.1,0.2,0.2c-3.9,2.8-9.4,6.2-15.7,9.2c0,0-0.1,0-0.1,0   c-0.5,0.2-1,0.5-1.4,0.7c-0.2,0.1-0.4,0.2-0.6,0.3c-0.3,0.1-0.7,0.3-1,0.4c-0.3,0.1-0.6,0.3-0.9,0.4c-0.2,0.1-0.5,0.2-0.7,0.3   c-0.4,0.1-0.7,0.3-1.1,0.4c-0.2,0.1-0.4,0.2-0.6,0.2c-0.4,0.2-0.8,0.3-1.3,0.5c-0.2,0.1-0.5,0.2-0.7,0.3c-0.4,0.1-0.8,0.3-1.2,0.4   c-0.3,0.1-0.5,0.2-0.8,0.3c-0.4,0.1-0.7,0.2-1.1,0.3c-0.3,0.1-0.6,0.2-0.9,0.3c-0.3,0.1-0.7,0.2-1,0.3c-0.3,0.1-0.6,0.2-0.9,0.3   c-0.3,0.1-0.7,0.2-1,0.3c-0.3,0.1-0.6,0.2-0.9,0.2c-0.3,0.1-0.6,0.1-0.9,0.2c-0.3,0.1-0.6,0.1-1,0.2c-0.3,0.1-0.6,0.1-0.9,0.2   c-0.3,0.1-0.7,0.1-1,0.2c-0.3,0-0.6,0.1-0.8,0.1c-0.3,0.1-0.7,0.1-1,0.2c-0.3,0-0.5,0.1-0.8,0.1c-0.3,0-0.7,0.1-1,0.1   c-0.3,0-0.5,0-0.8,0.1c-0.4,0-0.7,0.1-1.1,0.1c-0.2,0-0.5,0-0.7,0c-0.4,0-0.7,0-1.1,0.1c-0.2,0-0.5,0-0.7,0c-0.4,0-0.7,0-1.1,0   c-0.2,0-0.4,0-0.7,0c-0.4,0-0.7,0-1.1,0c-0.2,0-0.4,0-0.7,0c-0.4,0-0.7,0-1.1,0c-0.2,0-0.4,0-0.6,0c-0.4,0-0.7-0.1-1.1-0.1   c-0.2,0-0.4,0-0.6-0.1c-0.4,0-0.7-0.1-1.1-0.1c-0.2,0-0.4-0.1-0.6-0.1c-0.4-0.1-0.7-0.1-1.1-0.2c-0.2,0-0.4-0.1-0.6-0.1   c-0.3-0.1-0.7-0.1-1-0.2c-0.2,0-0.4-0.1-0.6-0.1c-0.3-0.1-0.7-0.2-1-0.2c-0.2-0.1-0.4-0.1-0.6-0.2c-0.3-0.1-0.7-0.2-1-0.3   c-0.2-0.1-0.4-0.1-0.6-0.2c-0.3-0.1-0.6-0.2-1-0.3c-0.2-0.1-0.4-0.2-0.7-0.2c-0.3-0.1-0.6-0.2-0.9-0.3c-0.2-0.1-0.5-0.2-0.7-0.3   c-0.3-0.1-0.6-0.2-0.9-0.4c-0.2-0.1-0.5-0.2-0.7-0.3c-0.3-0.1-0.6-0.2-0.8-0.4c-0.2-0.1-0.5-0.2-0.7-0.4c-0.3-0.1-0.5-0.3-0.8-0.4   c-0.3-0.1-0.5-0.3-0.8-0.4c-0.2-0.1-0.5-0.3-0.7-0.4c-0.3-0.2-0.6-0.3-0.8-0.5c-0.2-0.1-0.4-0.3-0.6-0.4c-0.3-0.2-0.6-0.4-0.9-0.6   c-0.2-0.1-0.4-0.2-0.5-0.3c-0.4-0.2-0.7-0.5-1.1-0.7c-0.1-0.1-0.3-0.2-0.4-0.3c-0.5-0.3-0.9-0.7-1.4-1c0,0,0,0,0,0   c-0.9-0.7-1.9-1.5-2.8-2.3c-4.8-4.3-11.7-5.2-17.5-2.4c-5.4,2.6-8.7,7.9-8.8,13.8c0,0.4,0,0.7,0,1.1c1.1,19,17.6,45.6,43,57.2   c16.5,7.5,42,11.5,74.7-6.7c-6.2,13.2-14.5,21.9-24.8,26.2c-5.5,2.3-25.6,8.4-53.2-8.3c-4.2-2.5-9.3-2.7-13.6-0.4   c-4.3,2.2-7.1,6.5-7.5,11.3c-0.5,7,0,16,3.6,24.9c1.9,4.6,4.7,9.3,8.6,13.5c11.7,12.6,31,19,57.2,19c0,0,0,0,0,0s0,0,0,0   c5.5,0,10.6-0.4,15.4-1c39.4-5.4,59.2-31.4,75.5-52.8c13-17,21.5-27.4,33.7-27.4c12.2,0,20.7,10.4,33.7,27.4   c16,21,35.4,46.4,73.4,52.5c5.4,0.9,11.2,1.3,17.5,1.3c0,0,0,0,0,0s0,0,0,0c26.3,0,45.5-6.4,57.2-19c4-4.3,6.7-8.9,8.6-13.5   c3.6-8.9,4.1-17.9,3.6-24.9c-0.4-4.9-3.2-9.1-7.5-11.3c-4.3-2.3-9.4-2.1-13.6,0.4c-27.6,16.7-47.7,10.6-53.2,8.3   c-10.3-4.3-18.6-13-24.8-26.2C383.6,444.1,409.1,440.1,425.6,432.6z M208.4,22.2c0.1,0,0.2-0.1,0.3-0.1c0.9-0.3,1.7-0.6,2.6-0.8   c0.3-0.1,0.7-0.2,1-0.3c0.7-0.2,1.5-0.4,2.2-0.7c0.5-0.1,1-0.3,1.5-0.4c0.6-0.2,1.3-0.3,1.9-0.5c0.7-0.2,1.4-0.3,2.1-0.5   c0.5-0.1,1-0.2,1.5-0.3c2.5-0.6,5.1-1,7.7-1.5c0.2,0,0.4-0.1,0.5-0.1c1.1-0.2,2.3-0.3,3.5-0.5c0.3,0,0.7-0.1,1-0.1   c1-0.1,2-0.2,3.1-0.4c0.4,0,0.8-0.1,1.2-0.1c1-0.1,1.9-0.2,2.9-0.3c0.5,0,0.9-0.1,1.4-0.1c1-0.1,1.9-0.1,2.9-0.2   c0.5,0,0.9-0.1,1.4-0.1c1,0,2.1-0.1,3.1-0.1c0.4,0,0.8,0,1.3,0c1.5,0,2.9-0.1,4.4-0.1s2.9,0,4.4,0.1c0.4,0,0.8,0,1.3,0   c1,0,2.1,0.1,3.1,0.1c0.5,0,0.9,0,1.4,0.1c1,0.1,2,0.1,2.9,0.2c0.5,0,0.9,0.1,1.4,0.1c1,0.1,2,0.2,2.9,0.3c0.4,0,0.8,0.1,1.2,0.1   c1,0.1,2.1,0.2,3.1,0.4c0.3,0,0.7,0.1,1,0.1c1.2,0.2,2.3,0.3,3.5,0.5c0.2,0,0.4,0.1,0.5,0.1c2.6,0.4,5.2,0.9,7.7,1.5   c0.5,0.1,1,0.2,1.5,0.3c0.7,0.2,1.4,0.3,2.1,0.5c0.6,0.2,1.3,0.3,1.9,0.5c0.5,0.1,1,0.3,1.5,0.4c0.8,0.2,1.5,0.4,2.3,0.7   c0.3,0.1,0.7,0.2,1,0.3c0.9,0.3,1.7,0.6,2.6,0.8c0.1,0,0.2,0.1,0.3,0.1c15.8,5.4,28.9,13.9,39.2,25.5c0.2,0.2,0.3,0.4,0.5,0.5   c0.4,0.4,0.7,0.8,1.1,1.3c8.3,9.9,16.9,24.5,22.1,45.9c0.1,0.4,0.2,0.8,0.3,1.2c0.1,0.6,0.3,1.3,0.4,1.9c0.2,0.7,0.3,1.4,0.5,2.1   c0.1,0.3,0.1,0.6,0.2,0.9c1.8,9.2,3,19,3.4,29.5c0,0.3,0,0.5,0,0.8c0,1,0.1,1.9,0.1,2.9c0,0.5,0,1.1,0,1.6c0,1.1,0,2.1,0,3.2   c0,1.1,0,2.2,0,3.3c0,0.5,0,1.1,0,1.6c0,1.1,0,2.2-0.1,3.4c0,0.4,0,0.8,0,1.2c-0.1,2.1-0.2,4.1-0.3,6.2c0,0.2,0,0.5,0,0.7   c-0.1,1.7-0.2,3.5-0.4,5.2c-0.1,0.7-0.1,1.3-0.2,1.9c-0.2,1.7-0.3,3.4-0.5,5.1c-0.1,0.6-0.1,1.3-0.2,1.9c-0.2,1.4-0.4,2.9-0.5,4.3   c-2.7,20.9-7.6,42.7-14.3,63.6c0,0.1,0,0.1-0.1,0.2c-0.7,2.1-1.4,4.2-2.1,6.3c-0.1,0.4-0.2,0.7-0.4,1.1c-0.6,1.8-1.3,3.6-1.9,5.4   c-0.3,0.7-0.6,1.5-0.8,2.2c-0.5,1.4-1.1,2.9-1.6,4.3c-0.6,1.6-1.2,3.1-1.9,4.6c-0.3,0.6-0.5,1.2-0.7,1.9c-1,2.3-0.7,5,0.7,7   c1.4,2.1,3.7,3.3,6.2,3.3c0,0,0,0,0,0c0,0,0,0,0,0c0.6,0,1.2,0,1.8,0.1c8.7,0.5,14.2,5.2,16.8,14.1c5.8,19.9-5.1,53.8-20.5,63.6   c-2,1.3-3.2,3.4-3.4,5.7c-0.2,2.3,0.7,4.6,2.5,6.2c0.5,0.5,11.4,10.1,27.3,17.4c2,0.9,4,1.8,6.1,2.6c26.5,10.3,50.6,6.8,69.7-10.1   c0.1-0.1,0.4-0.4,1-0.1c0.2,0.1,0.3,0.2,0.3,0.2c0,0.1,0,0.2,0,0.3c-0.7,11.9-12.1,34.3-34.3,44.5c-22.7,10.4-49.7,4.3-78.2-17.5   c-2.5-1.9-6-2.1-8.7-0.3c-2.7,1.8-3.9,5-3.2,8.1c4.9,19.4,12.4,34.3,22.6,44.5c5.3,5.4,11.4,9.4,18.1,12.2c0.9,0.4,1.8,0.7,2.7,1   c0.2,0.1,0.5,0.1,0.7,0.2c0.7,0.2,1.3,0.4,2,0.6c0.3,0.1,0.6,0.2,0.9,0.3c0.6,0.2,1.1,0.3,1.7,0.5c0.3,0.1,0.7,0.2,1,0.2   c0.5,0.1,1.1,0.2,1.6,0.3c0.4,0.1,0.7,0.1,1.1,0.2c0.5,0.1,1,0.2,1.6,0.2c0.4,0.1,0.7,0.1,1.1,0.1c0.5,0.1,1,0.1,1.5,0.2   c0.4,0,0.7,0.1,1.1,0.1c0.5,0,1,0.1,1.5,0.1c0.4,0,0.7,0,1.1,0.1c0.5,0,1,0,1.6,0c0.2,0,0.5,0,0.7,0c0.1,0,0.2,0,0.3,0   c1.1,0,2.1,0,3.1-0.1c0.2,0,0.4,0,0.5,0c0.9-0.1,1.8-0.1,2.7-0.2c0.2,0,0.5,0,0.7-0.1c1-0.1,2.1-0.2,3.1-0.4c0.1,0,0.2,0,0.2,0   c0.9-0.1,1.9-0.3,2.8-0.5c0.2,0,0.4-0.1,0.7-0.1c2-0.4,3.9-0.9,5.8-1.4c0.2-0.1,0.4-0.1,0.6-0.2c0.9-0.2,1.8-0.5,2.6-0.8   c0,0,0.1,0,0.1,0c0.9-0.3,1.8-0.6,2.7-0.9c0.1-0.1,0.3-0.1,0.4-0.2c0.8-0.3,1.6-0.6,2.3-0.9c0.1,0,0.1-0.1,0.2-0.1   c0.8-0.3,1.7-0.6,2.5-1c0.1,0,0.2-0.1,0.3-0.1c0.7-0.3,1.4-0.6,2.1-0.9c0.1,0,0.1-0.1,0.2-0.1c0.8-0.3,1.5-0.7,2.2-1c0,0,0,0,0,0   c0.7-0.3,1.3-0.6,2-1c0.1,0,0.1-0.1,0.2-0.1c1.3-0.7,2.5-1.3,3.5-1.9c0,0,0,0,0,0c0.5-0.3,1-0.6,1.5-0.8c0.3,7.5-1.1,17.5-8.4,25.3   c-8.8,9.4-24.3,14.2-46.2,14.2c-8.9,0-16.8-1.1-23.8-3.1c-0.6-0.2-1.2-0.3-1.7-0.5c-1.2-0.4-2.3-0.7-3.5-1.1   c-13.2-4.7-23.4-12.6-32-21.5c-6.7-6.9-12.4-14.4-17.9-21.6c-13.1-17.1-25.4-33.3-45.6-33.3c0,0,0,0,0,0s0,0,0,0   c-20.2,0-32.6,16.2-45.6,33.3c-5.1,6.7-10.4,13.6-16.5,20.1c-10,10.7-22.1,20-38.7,24.7c-7.1,2-14.9,3.1-23.8,3.1   c-21.9,0-37.5-4.8-46.2-14.2c-7.3-7.8-8.6-17.8-8.4-25.3c0.4,0.3,0.9,0.5,1.5,0.8c0,0,0,0,0.1,0c1,0.6,2.2,1.2,3.5,1.8   c0.1,0,0.1,0.1,0.2,0.1c0.6,0.3,1.3,0.6,2,1c0,0,0,0,0,0c0.7,0.3,1.4,0.7,2.2,1c0.1,0,0.1,0.1,0.2,0.1c0.7,0.3,1.4,0.6,2.1,0.9   c0.1,0,0.2,0.1,0.3,0.1c0.8,0.3,1.6,0.7,2.5,1c0.1,0,0.2,0.1,0.2,0.1c0.8,0.3,1.5,0.6,2.3,0.8c0.1,0.1,0.3,0.1,0.4,0.2   c0.9,0.3,1.8,0.6,2.7,0.9c0,0,0.1,0,0.1,0c0.9,0.3,1.7,0.5,2.6,0.8c0.2,0.1,0.4,0.1,0.6,0.2c1.9,0.5,3.8,1,5.8,1.4   c0.2,0,0.4,0.1,0.7,0.1c0.9,0.2,1.9,0.3,2.8,0.5c0.1,0,0.2,0,0.2,0c1,0.2,2,0.3,3.1,0.4c0.2,0,0.5,0,0.7,0.1   c0.9,0.1,1.8,0.2,2.7,0.2c0.2,0,0.4,0,0.5,0c1,0.1,2.1,0.1,3.1,0.1c0.1,0,0.2,0,0.3,0c0.2,0,0.5,0,0.7,0c0.5,0,1,0,1.6,0   c0.4,0,0.7,0,1.1-0.1c0.5,0,1-0.1,1.5-0.1c0.4,0,0.7-0.1,1.1-0.1c0.5,0,1-0.1,1.5-0.2c0.4,0,0.7-0.1,1.1-0.1c0.5-0.1,1-0.2,1.6-0.2   c0.4-0.1,0.7-0.1,1.1-0.2c0.5-0.1,1.1-0.2,1.6-0.3c0.3-0.1,0.7-0.1,1-0.2c0.6-0.1,1.1-0.3,1.7-0.5c0.3-0.1,0.6-0.2,0.9-0.3   c0.7-0.2,1.3-0.4,2-0.6c0.2-0.1,0.5-0.1,0.7-0.2c0.9-0.3,1.8-0.6,2.7-1c6.7-2.8,12.8-6.9,18.1-12.2c10.2-10.2,17.7-25.1,22.6-44.5   c0.8-3.1-0.5-6.3-3.2-8.1c-2.7-1.8-6.1-1.6-8.7,0.3c-28.5,21.8-55.5,27.8-78.2,17.5c-22.2-10.1-33.6-32.5-34.3-44.5   c0-0.1,0-0.2,0-0.3c0-0.1,0.1-0.2,0.3-0.2c0.5-0.3,0.9,0,1,0.1c19,16.9,43.1,20.4,69.6,10.1c1.6-0.6,3.1-1.3,4.6-1.9   c16.7-7.4,28.3-17.7,28.8-18.1c1.8-1.6,2.7-3.9,2.5-6.2c-0.2-2.3-1.5-4.5-3.4-5.7c-15.4-9.8-26.3-43.7-20.5-63.6   c2.8-9.5,8.8-14.1,18.5-14.1c2.5,0,4.8-1.3,6.2-3.3c1.4-2.1,1.7-4.7,0.7-7c-0.3-0.6-0.5-1.2-0.7-1.9c-0.6-1.5-1.3-3.1-1.9-4.6   c-0.6-1.4-1.1-2.9-1.6-4.3c-0.3-0.7-0.6-1.5-0.8-2.2c-0.7-1.8-1.3-3.6-1.9-5.4c-0.1-0.4-0.2-0.7-0.4-1.1c-0.7-2.1-1.4-4.2-2.1-6.3   c0-0.1,0-0.1-0.1-0.2c-6.7-20.9-11.6-42.8-14.3-63.6c-0.2-1.4-0.4-2.9-0.5-4.3c-0.1-0.6-0.1-1.3-0.2-1.9c-0.2-1.7-0.4-3.4-0.5-5.1   c-0.1-0.7-0.1-1.3-0.2-1.9c-0.1-1.7-0.3-3.5-0.4-5.2c0-0.2,0-0.5,0-0.7c-0.1-2.1-0.2-4.2-0.3-6.2c0-0.4,0-0.8,0-1.2   c0-1.1-0.1-2.3-0.1-3.4c0-0.5,0-1.1,0-1.6c0-1.1,0-2.2,0-3.3c0-1.1,0-2.1,0-3.2c0-0.6,0-1.1,0-1.7c0-1,0-1.9,0.1-2.9   c0-0.3,0-0.5,0-0.8c0.4-10.4,1.5-20.3,3.4-29.5c0.1-0.3,0.1-0.6,0.2-0.9c0.1-0.7,0.3-1.4,0.5-2.1c0.1-0.6,0.3-1.3,0.4-1.9   c0.1-0.4,0.2-0.8,0.3-1.2c5.2-21.4,13.8-36,22.1-45.9c0.4-0.4,0.7-0.8,1.1-1.3c0.2-0.2,0.3-0.4,0.5-0.5   C179.5,36.1,192.6,27.6,208.4,22.2z"/><path d="M277.2,331.1c0,0.1,0.1,0.1,0.1,0.2c0,0,0,0,0,0c1.5,2.5,4.3,4,7.2,3.7c0.3,0,0.6-0.1,0.9-0.1c3.9-0.9,6.4-4.6,5.8-8.5   c0-0.1,0-0.3-0.1-0.4c-0.2-0.7-0.3-1.5-0.4-2.2c-3.2-21.2,14.5-38.3,15.2-39c0,0,0,0,0,0c0,0,0,0,0,0c0,0,0,0,0,0   c0,0,0.1-0.1,0.1-0.1c0.1-0.1,0.3-0.3,0.4-0.4c0,0,0.1-0.1,0.1-0.1c0.1-0.2,0.3-0.3,0.4-0.5c0,0,0,0,0-0.1c0.1-0.2,0.2-0.4,0.4-0.6   c0,0,0,0,0,0c1.6-2.8,1.3-6.3-1-8.8c-1.4-1.5-3.3-2.3-5.2-2.4c-1.9-0.1-3.9,0.6-5.4,2c-1.1,1-26.1,24.4-19.3,55.5   C276.6,329.9,276.9,330.5,277.2,331.1z"/><path d="M336.2,278.8C336.2,278.8,336.2,278.8,336.2,278.8C336.2,278.8,336.2,278.8,336.2,278.8c-1.1,0-2.2,0.1-3.3,0.3   c-0.1,0-0.1,0-0.2,0c-1.8,0.3-3.5,0.8-5.2,1.6c-0.6,0.2-1.1,0.5-1.7,0.8c-0.6,0.3-1.1,0.6-1.7,0.9c-3.1,1.8-6.1,4.4-8.8,7.4   c0,0,0,0,0,0.1c-0.6,0.7-1.2,1.5-1.8,2.2c-3.4,4.4-6.2,9.6-8.3,15.5c-7.3,20.5-2.3,40.3,11.5,45.2c2,0.7,4.2,1.1,6.4,1.1   c0,0,0,0,0,0c0.1,0,0.1,0,0.2,0c10.6-0.1,21.1-8.5,27.8-21.6c1.2-2.3,2.2-4.7,3.1-7.3c6.3-17.6,3.4-34.7-6.2-42.3   c-1.6-1.2-3.3-2.2-5.3-2.9C340.6,279.1,338.4,278.8,336.2,278.8z M321.6,338.7c-2.6-0.9-4.7-5.4-4.9-11.8   c5.5-0.4,20.2-2.5,21.5-2.8c-4.4,9.2-11,14.8-15.3,14.8C322.5,338.9,322,338.8,321.6,338.7z M323.8,303.4c4.1-6.1,9-9.7,12.4-9.7   c0.5,0,0.9,0.1,1.3,0.2c1.3,0.5,2.5,1.9,3.4,4c0.3,0.8,0.6,1.7,0.8,2.7c-3.5,0.4-15.2,2.2-17.8,2.7   C323.9,303.4,323.9,303.4,323.8,303.4z"/><path d="M354,160c-1.6-1.2-3.4-2.1-5.4-2.6c0,0,0,0,0,0c-0.5-0.1-1.1-0.2-1.6-0.3c0,0,0,0,0,0c-4.5-0.6-8.5,1-11.8,3.7   c-3.9,3.1-7.1,8-8.8,13.9c-0.2,0.6-0.3,1.1-0.5,1.7c-0.1,0.6-0.2,1.1-0.3,1.7c-1.4,7.6,0.2,14.8,3.8,19.6c2.6,3.7,6.4,6.1,11.8,6.1   c0,0,0,0,0,0h0c4.3,0,8.4-1.9,11.7-5.1c0.1-0.1,0.2-0.2,0.3-0.3c0.1-0.1,0.1-0.1,0.1-0.2c3.4-3.4,6-8.2,7.3-13.8   C362.9,174.3,360.1,164.7,354,160z M346.4,177.8c0,0.1,0,0.3,0,0.4c0,0.1,0,0.3,0,0.4c0,0.1,0,0.2,0,0.3c-0.1,0.7-0.2,1.4-0.4,2.2   c-1.1,4.7-3.6,7.2-4.7,7.7c-0.1-0.1-0.1-0.2-0.2-0.3c-0.7-1.2-1.6-4.4-0.6-8.7c0.3-1.2,0.6-2.2,1-3.1c0.1-0.2,0.2-0.3,0.3-0.5   c0.1-0.2,0.2-0.5,0.4-0.7c1.1-1.9,2.3-3,3-3.3c0,0,0.1,0.1,0.1,0.2c0,0,0,0,0,0c0,0.1,0.1,0.1,0.1,0.2c0,0,0,0,0,0   c0,0.1,0.1,0.2,0.1,0.2c0,0,0,0,0,0.1c0,0.1,0.1,0.2,0.1,0.3c0,0,0,0.1,0,0.1c0,0.1,0.1,0.2,0.1,0.3c0,0,0,0.1,0,0.1   c0,0.1,0.1,0.2,0.1,0.3c0,0.1,0,0.1,0.1,0.2c0,0.1,0,0.2,0.1,0.3c0,0.1,0,0.1,0.1,0.2c0,0.1,0,0.2,0.1,0.3c0,0.1,0,0.2,0,0.2   c0,0.1,0,0.2,0,0.3c0,0.1,0,0.2,0,0.3c0,0.1,0,0.3,0,0.4c0,0.1,0,0.2,0,0.3c0,0.1,0,0.3,0,0.4c0,0.1,0,0.2,0,0.3c0,0.1,0,0.3,0,0.4   C346.4,177.6,346.4,177.7,346.4,177.8z"/><path d="M329,252.2c3.8-3.3,6.7-8.4,8.1-14.3c0.1-0.6,0.3-1.1,0.4-1.7c0,0,0,0,0,0c0,0,0,0,0,0c0.1-0.5,0.2-1.1,0.2-1.6   c0.6-5.1,0-10.1-1.7-14.3c-0.4-0.9-0.8-1.7-1.3-2.5c-2.2-4-5.7-7-10.7-7.9c-5.2-0.9-9.7,0.9-13.2,4.1c-3.8,3.3-6.7,8.3-8.1,14.2   c-0.1,0.6-0.3,1.2-0.4,1.8c-0.1,0.6-0.2,1.2-0.2,1.8c-0.6,5,0,10,1.7,14.2c0.4,1,0.9,1.9,1.4,2.8c2.2,3.8,5.7,6.8,10.6,7.6   C321.1,257.3,325.5,255.5,329,252.2z M317.6,230.9c0.1-0.4,0.2-0.7,0.3-1.1c0-0.1,0.1-0.3,0.1-0.4c1.1-2.8,2.6-4.3,3.4-4.8   c0,0,0,0,0,0c0.1,0.1,0.2,0.2,0.3,0.4c0,0,0,0,0,0c0.1,0.2,0.2,0.4,0.3,0.6c0,0,0,0,0,0.1c0.1,0.2,0.2,0.5,0.3,0.8c0,0,0,0,0,0.1   c0.1,0.3,0.2,0.6,0.3,1c0,0,0,0,0,0.1c0.1,0.4,0.1,0.8,0.2,1.2c0,0,0,0,0,0.1c0,0.4,0.1,0.9,0.1,1.3c0,0,0,0,0,0.1c0,0.5,0,1,0,1.5   c0,0,0,0,0,0c0,0.5-0.1,1.1-0.2,1.6c0,0,0,0,0,0c-0.6,3.5-2,5.8-3.2,7c0,0,0,0.1-0.1,0.1c0,0,0,0,0,0c-0.4,0.4-0.7,0.6-1,0.8   c-0.1-0.1-0.2-0.3-0.3-0.4c-0.8-1.3-1.7-4.3-1-8.5c0.1-0.3,0.1-0.5,0.2-0.8C317.4,231.5,317.5,231.2,317.6,230.9z"/><path d="M196.7,289.8c-0.6-0.7-1.2-1.3-1.8-1.9c-0.1-0.1-0.1-0.1-0.2-0.2c-0.5-0.5-1.1-1.1-1.7-1.6c-0.1-0.1-0.2-0.2-0.4-0.3   c-1.2-1.1-2.5-2-3.8-2.8c-0.9-0.6-1.8-1.1-2.7-1.6c-0.1,0-0.1,0-0.2-0.1c-2.2-1.1-4.5-1.9-6.7-2.2c-0.1,0-0.1,0-0.2,0   c-1.1-0.2-2.2-0.3-3.3-0.3c0,0,0,0,0,0s0,0,0,0c-2.2,0-4.3,0.4-6.4,1.1c-1.7,0.6-3.3,1.5-4.7,2.5c-10.1,7.4-13.1,24.8-6.7,42.7   c0.8,2.3,1.8,4.6,2.8,6.7c6.7,13.4,17.4,22.1,28.1,22.2c0.1,0,0.1,0,0.2,0c0,0,0,0,0,0c2.2,0,4.3-0.4,6.4-1.1   c13.7-4.9,18.8-24.8,11.5-45.2C204.4,300.6,200.8,294.5,196.7,289.8z M170.2,300.7c0.2-0.9,0.5-1.8,0.8-2.5   c0.9-2.2,2.1-3.7,3.5-4.2c0.4-0.1,0.8-0.2,1.3-0.2c3.5,0,8.4,3.6,12.4,9.7c-0.3,0-0.6-0.1-1.1-0.2   C183.3,302.6,173.3,301,170.2,300.7z M173.7,324.1c1.3,0.2,15.9,2.4,21.5,2.8c-0.2,6.4-2.3,10.9-4.9,11.8c-0.4,0.1-0.8,0.2-1.3,0.2   C184.7,338.9,178.1,333.3,173.7,324.1z"/><path d="M188.9,134.5c-2.1,4.9-2.8,10.9-2,16.9c0.1,0.6,0.2,1.2,0.3,1.8c0,0.1,0,0.2,0.1,0.3c1.4,7.6,4.8,14,9.3,18.3   c4,3.9,9.2,6.2,15.2,5.2c0,0,0,0,0,0c11.2-1.9,18-15.3,15.4-30.6c-1.3-7.7-4.7-14.1-9.2-18.4c-3.5-3.4-7.7-5.6-12.7-5.5   c-5.6,0.1-9.8,2.5-12.7,6.2C191,130.3,189.8,132.2,188.9,134.5z M201.6,145.3c0-0.3,0.1-0.6,0.1-1c0-0.1,0-0.1,0-0.2   c0.3-2.1,0.8-3.8,1.5-4.9c0.5-1,1.1-1.5,1.5-1.8c0.1,0,0.2-0.1,0.2-0.1c0,0,0,0,0,0c0,0,0.1,0,0.1,0c1.8,0,5.9,4,7.2,11.5   c1.3,7.7-1.5,13-3.1,13.2c0,0,0,0-0.1,0c0,0-0.1,0-0.1,0c-1.6,0-4.9-3.1-6.6-8.8c-0.2-0.8-0.4-1.7-0.6-2.6   c-0.2-0.9-0.3-1.9-0.3-2.8c0-0.1,0-0.2,0-0.3c0-0.3,0-0.7,0-1c0-0.2,0-0.5,0-0.7C201.5,145.7,201.6,145.5,201.6,145.3z"/><path d="M171,203.8C171,203.8,171,203.8,171,203.8c5.3,0,9.2-2.5,11.8-6.1c3.6-4.8,5.1-11.9,3.8-19.6c-0.1-0.6-0.2-1.2-0.3-1.7   c-0.1-0.6-0.3-1.1-0.5-1.7c-1.7-5.9-4.9-10.8-8.8-13.9c-3.3-2.7-7.3-4.3-11.8-3.7c0,0,0,0,0,0c-0.5,0.1-1.1,0.2-1.6,0.3   c0,0,0,0,0,0c-2.1,0.5-4,1.5-5.7,2.8c-5.9,4.7-8.6,14.2-6.3,24.3c1.5,6.2,4.5,11.4,8.4,14.8c0.1,0.1,0.2,0.2,0.4,0.3   c0,0,0.1,0.1,0.1,0.1C163.5,202.4,167.2,203.8,171,203.8L171,203.8z M170.8,188.8c-1.1-0.5-3.6-3-4.7-7.7c-0.1-0.6-0.2-1.1-0.3-1.7   c0,0,0,0,0,0c0-0.2,0-0.3-0.1-0.5c0-0.1,0-0.2,0-0.3c0-0.1,0-0.3,0-0.4c0-0.1,0-0.3,0-0.4c0-0.1,0-0.2,0-0.3c0-0.1,0-0.3,0-0.4   c0-0.1,0-0.2,0-0.2c0-0.1,0-0.3,0-0.4c0-0.1,0-0.2,0-0.2c0-0.1,0-0.3,0-0.4c0-0.1,0-0.1,0-0.2c0-0.1,0-0.3,0-0.4c0-0.1,0-0.1,0-0.2   c0-0.1,0-0.2,0.1-0.3c0-0.1,0-0.1,0-0.2c0-0.1,0-0.2,0.1-0.3c0-0.1,0-0.1,0-0.2c0-0.1,0.1-0.2,0.1-0.3c0,0,0-0.1,0-0.1   c0-0.1,0.1-0.2,0.1-0.3c0,0,0-0.1,0-0.1c0-0.1,0.1-0.2,0.1-0.3c0,0,0-0.1,0-0.1c0-0.1,0.1-0.2,0.1-0.2c0,0,0,0,0,0   c0-0.1,0.1-0.2,0.1-0.2c0,0,0,0,0,0c0-0.1,0.1-0.1,0.1-0.2c0.7,0.3,1.9,1.4,3,3.3c0.1,0.2,0.3,0.5,0.4,0.7c0.1,0.2,0.2,0.3,0.3,0.5   c0.4,0.9,0.8,1.9,1,3.1c1,4.3,0.1,7.5-0.6,8.7C170.9,188.6,170.8,188.7,170.8,188.8z"/><path d="M216.2,273.8c-1.5-1.4-3.5-2.1-5.5-2c-1.9,0.1-3.8,0.9-5.1,2.4c-2.1,2.3-2.5,5.5-1.3,8.2c0,0,0,0,0,0   c0.1,0.2,0.2,0.4,0.3,0.6c0,0,0,0,0,0c0.1,0.2,0.2,0.4,0.4,0.6c0,0,0,0,0,0.1c0.1,0.2,0.3,0.3,0.4,0.5c0,0,0.1,0.1,0.1,0.1   c0.1,0.1,0.3,0.3,0.4,0.4c0,0,0.1,0.1,0.1,0.1c0,0,0,0,0,0c0,0,0,0,0,0c0,0,0,0,0,0c0.8,0.7,18.4,17.8,15.2,39   c-0.1,0.7-0.2,1.5-0.4,2.2c0,0.1,0,0.3-0.1,0.4c-0.6,3.9,1.9,7.7,5.8,8.5c0.3,0.1,0.6,0.1,0.9,0.1c2.9,0.3,5.8-1.3,7.2-3.7   c0,0,0,0,0,0c0-0.1,0.1-0.1,0.1-0.2c0.3-0.6,0.6-1.2,0.7-1.9C242.3,298.1,217.2,274.7,216.2,273.8z"/><path d="M172.6,75.5c-11.4,0.2-20,12.5-19.7,28c0.2,8.6,3.1,16.1,7.7,21c3.5,3.8,8,6.1,12.9,6.1l0.3,0c6-0.1,11.5-3.6,15.2-9.7   c3.1-5,4.7-11.5,4.5-18.3c-0.3-15.2-9.3-27.1-20.5-27.1h0h0L172.6,75.5z M177.7,97.3c0.4,1.6,0.8,3.5,0.8,5.6   c0.1,3.9-0.8,7.6-2.4,10.2c-0.2,0.4-0.4,0.7-0.7,0.9c0,0-0.1,0.1-0.1,0.1c0,0,0,0,0,0c-0.7,0.9-1.5,1.3-1.9,1.3h0   c-1.1,0-3.2-2.1-4.5-6c-0.6-1.8-1-3.9-1.1-6.5c-0.1-3.8,0.7-6.9,1.8-9c1.1-2.3,2.4-3.6,3.3-3.6C174.1,90.5,176.5,92.8,177.7,97.3z"/><path d="M177.2,217.7c-0.5,0.8-0.9,1.6-1.3,2.5c-1.7,4.2-2.3,9.2-1.7,14.3c0.1,0.6,0.1,1.1,0.2,1.6c0,0,0,0,0,0c0,0,0,0,0,0   c0.1,0.6,0.2,1.1,0.4,1.7c1.4,6,4.3,11,8.1,14.3c3.5,3.2,8,5.1,13.2,4.1c4.9-0.9,8.3-3.8,10.6-7.6c0.5-0.9,1-1.8,1.4-2.8   c1.7-4.2,2.3-9.1,1.7-14.2c-0.1-0.6-0.1-1.2-0.2-1.8c-0.1-0.6-0.2-1.2-0.4-1.8c-1.4-5.9-4.3-10.9-8.1-14.2c-3.5-3.2-8-5.1-13.2-4.1   C182.9,210.7,179.4,213.7,177.2,217.7z M189.1,228.9c0-0.4,0.1-0.8,0.2-1.2c0,0,0,0,0-0.1c0.1-0.4,0.2-0.7,0.3-1c0,0,0,0,0-0.1   c0.1-0.3,0.2-0.6,0.3-0.8c0,0,0,0,0-0.1c0.1-0.2,0.2-0.4,0.3-0.6c0,0,0,0,0,0c0.1-0.2,0.2-0.3,0.3-0.4c0,0,0,0,0,0   c0.8,0.4,2.3,2,3.4,4.8c0.1,0.1,0.1,0.3,0.1,0.4c0.1,0.3,0.2,0.7,0.3,1c0.1,0.3,0.1,0.6,0.2,0.9c0.1,0.3,0.1,0.5,0.2,0.8   c0.7,4.2-0.2,7.3-1,8.5c-0.1,0.2-0.2,0.3-0.3,0.4c-0.3-0.1-0.6-0.4-1-0.8c0,0,0,0,0,0c0,0-0.1-0.1-0.1-0.1c-1.1-1.2-2.6-3.6-3.2-7   c0,0,0,0,0,0c-0.1-0.6-0.2-1.1-0.2-1.6c0,0,0,0,0,0c0-0.5-0.1-1,0-1.5c0,0,0,0,0-0.1C189,229.8,189,229.4,189.1,228.9   C189.1,229,189.1,228.9,189.1,228.9z"/><path d="M300.3,176.9C300.3,176.9,300.3,176.9,300.3,176.9c6.1,1,11.3-1.3,15.3-5.2c4.5-4.2,7.9-10.6,9.3-18.2   c0-0.1,0.1-0.3,0.1-0.4c0.1-0.6,0.2-1.2,0.3-1.8c0.7-6,0-12-2-16.9c-0.9-2.2-2.1-4.1-3.5-5.8c-3-3.7-7.2-6.2-12.7-6.2   c-5-0.1-9.3,2.2-12.7,5.5c-4.5,4.3-7.9,10.8-9.2,18.4C282.3,161.6,289.1,175,300.3,176.9z M306.9,137.4c0,0,0.1,0,0.1,0   c0,0,0,0,0,0c0.1,0,0.1,0,0.2,0.1c0.4,0.2,1,0.8,1.5,1.8c0.6,1.2,1.2,2.8,1.5,4.9c0,0.1,0,0.1,0,0.2c0,0.3,0.1,0.6,0.1,1   c0,0.2,0,0.3,0,0.5c0,0.2,0,0.5,0,0.7c0,0.3,0,0.7,0,1c0,0.1,0,0.2,0,0.3c0,0.9-0.1,1.9-0.3,2.8c-0.2,0.9-0.4,1.8-0.6,2.6   c-1.7,5.7-5,8.8-6.6,8.8c0,0-0.1,0-0.1,0c-1.6-0.3-4.4-5.6-3.1-13.2c1.2-7,4.9-11,6.8-11.4C306.7,137.5,306.8,137.4,306.9,137.4z"/><path d="M338.2,130.5l0.3,0c5.3,0,10.1-2.7,13.8-7.1c4-4.9,6.6-12,6.8-20c0.3-15.4-8.3-27.7-19.7-28l-0.3,0h0h0   c-11.2,0-20.2,11.9-20.5,27.1c-0.1,6.8,1.5,13.3,4.5,18.3C326.7,126.9,332.2,130.4,338.2,130.5z M339,90.5c0.8,0,2.2,1.3,3.3,3.6   c1,2.2,1.8,5.2,1.8,9c-0.1,2.6-0.5,4.8-1.1,6.6c-1.3,3.8-3.4,5.8-4.4,5.8h0c-0.4,0-1-0.4-1.7-1.2c-0.3-0.3-0.6-0.8-0.9-1.3   c-1.6-2.6-2.4-6.3-2.4-10.2c0-2.2,0.4-4,0.8-5.7C335.6,92.8,337.9,90.5,339,90.5z"/></g><text x="0" y="527" fill="#000000" font-size="5px" font-weight="bold" font-family="'Helvetica Neue', Helvetica, Arial-Unicode, Arial, Sans-serif">Created by Muhammad Auns</text><text x="0" y="532" fill="#000000" font-size="5px" font-weight="bold" font-family="'Helvetica Neue', Helvetica, Arial-Unicode, Arial, Sans-serif">from the Noun Project</text></svg>