<svg xmlns="http://www.w3.org/2000/svg" xmlns:xlink="http://www.w3.org/1999/xlink" version="1.1" x="0px" y="0px" viewBox="0 0 512 640" enable-background="new 0 0 512 512" xml:space="preserve"><g><path d="M308.8,108.3c-6.9-3-14.7-4.7-23.3-5c-0.1,0-0.2,0-0.4,0c-0.7,0-1.4,0-2.1,0c-0.8,0-1.5,0-2.3,0c-0.1,0-0.1,0-0.2,0   c-3.5,0.1-7.2,0.4-11,0.9c-4.5,0.6-9,0.9-13.6,0.9c-4.5,0-9.1-0.3-13.6-0.9c-3.8-0.5-7.5-0.8-11-0.9c-0.1,0-0.1,0-0.2,0   c-0.8,0-1.5,0-2.3,0c-0.7,0-1.4,0-2.1,0c-0.1,0-0.2,0-0.4,0c-8.6,0.3-16.4,1.9-23.3,5c-3.8,1.7-5.5,6.1-3.9,9.9   c1.2,2.8,4,4.5,6.9,4.5c0.8,0,1.7-0.2,2.5-0.4c0.3-0.1,0.6-0.2,0.9-0.3c5.2-2.2,11.2-3.4,17.9-3.6c0.2,0,0.5,0,0.7,0   c0.4,0,0.8,0,1.2,0c3.4,0,7.1,0.3,10.8,0.8c5.2,0.7,10.5,1.1,15.7,1.1c5.3,0,10.5-0.3,15.7-1.1c3.8-0.5,7.4-0.8,10.8-0.8   c0.4,0,0.8,0,1.2,0c0.2,0,0.5,0,0.7,0c6.7,0.2,12.7,1.4,17.9,3.6c0.3,0.1,0.6,0.2,0.9,0.3c0.8,0.3,1.7,0.4,2.5,0.4   c2.9,0,5.6-1.7,6.9-4.5C314.3,114.4,312.6,110,308.8,108.3z"/><path d="M297,135.5c-4.6-2-9.6-2.6-14.6-2.6c-3,0-6,0.3-8.8,0.7c-5.8,0.8-11.7,1.2-17.6,1.2c-5.9,0-11.8-0.4-17.6-1.2   c-2.9-0.4-5.8-0.7-8.8-0.7c-5-0.1-10,0.6-14.6,2.6c-3.3,1.4-4.5,4.3-4.2,7.1c0,0.9,0.2,1.8,0.6,2.6c0.4,0.8,0.9,1.6,1.4,2.2   c1.7,2,4.3,3.1,7.4,2.1c0.3-0.1,0.7-0.2,1-0.3c2.6-1.1,5.5-1.4,8.4-1.4c2.3,0,4.6,0.3,6.7,0.6c6.5,0.9,13.1,1.3,19.7,1.3   c6.6,0,13.2-0.4,19.7-1.3c2.1-0.3,4.4-0.6,6.7-0.6c2.9-0.1,5.8,0.3,8.4,1.4c0.3,0.1,0.7,0.2,1,0.3c3.1,1,5.7-0.1,7.4-2.1   c0.6-0.6,1.1-1.4,1.4-2.2c0.4-0.9,0.6-1.8,0.6-2.6C301.5,139.8,300.3,136.9,297,135.5z"/><path d="M167.5,216.7c5.2,0.9,10.3,0.6,14.7-0.6c1-0.3,1.9-0.7,2.6-1.2c1.2-0.8,2.1-2,2.3-3.3l0,0c1.8-11.2-9-22.2-24.2-24.7   c-5.2-0.9-10.3-0.6-14.7,0.6c-1.7,0.4-3,1.3-3.9,2.3c-0.1,0.1-0.2,0.3-0.3,0.4c0,0.1-0.1,0.1-0.2,0.2c-0.3,0.5-0.5,1-0.5,1.5l0,0   C141.5,203.1,152.4,214.2,167.5,216.7z"/><path d="M324.8,211.6L324.8,211.6c0.2,1.3,1.1,2.5,2.3,3.3c0.7,0.5,1.6,0.9,2.6,1.2c4.5,1.2,9.5,1.5,14.7,0.6   c15.2-2.5,26-13.5,24.2-24.7l0,0c-0.1-0.5-0.3-1-0.5-1.5c0-0.1-0.1-0.1-0.2-0.2c-0.1-0.1-0.2-0.3-0.3-0.4c-0.9-1.1-2.3-1.9-3.9-2.3   c-4.5-1.2-9.5-1.5-14.7-0.6C333.8,189.4,323,200.4,324.8,211.6z"/><path d="M368.5,274c-0.3,0.2-0.5,0.4-0.8,0.6c-3.1,2.9-2.7,7.1-0.5,9.9c2.1,2.7,5.7,4.1,9.3,2.1c0.3-0.2,0.6-0.4,0.9-0.6   c13.4-9.9,36.6-31.5,42.2-65.4c0.9-5.3-3.2-8.4-7.3-8.5c-3.4-0.1-6.8,1.7-7.5,6.1C399.9,248,377.8,267.1,368.5,274z"/><path d="M352.3,249.1c-0.1,0.1-0.2,0.1-0.2,0.2c-7.1,6.2,2.4,17.4,9.7,11.4c11.2-9.1,26.1-24.7,33.7-46.8c1.4-4.2-0.7-7.5-3.8-8.9   c-3.7-1.8-8.7-1-10.4,4C374.9,227.8,362,241.2,352.3,249.1z"/><path d="M194.4,95.5c1,0,1.9-0.2,2.9-0.6c0.3-0.1,0.5-0.2,0.8-0.3c9.3-4,19.9-6,31.3-6c4.8,0,9.8,0.4,15,1.1   c3.9,0.5,7.8,0.8,11.7,0.8c3.9,0,7.9-0.3,11.7-0.8c5.1-0.7,10.2-1.1,15-1.1c11.4,0,22,2,31.3,6c0.3,0.1,0.5,0.2,0.8,0.3   c0.9,0.4,1.9,0.6,2.9,0.6c2.9,0,5.6-1.7,6.9-4.5c1.7-3.8-0.1-8.2-3.9-9.9c-11.4-5-24.1-7.5-37.9-7.5c0,0,0,0,0,0c0,0,0,0-0.1,0   c-5.5,0-11.2,0.4-17,1.2c-3.2,0.4-6.4,0.6-9.6,0.6c-3.2,0-6.4-0.2-9.6-0.6c-5.8-0.8-11.6-1.2-17-1.2c0,0,0,0-0.1,0c0,0,0,0,0,0   c-13.7,0-26.5,2.5-37.9,7.5c-3.8,1.7-5.5,6.1-3.9,9.9C188.7,93.9,191.5,95.5,194.4,95.5z"/><path d="M143.5,274c-9.3-6.9-31.4-26-36.3-55.7c-0.7-4.3-4.1-6.2-7.5-6.1c-4.1,0.1-8.2,3.2-7.3,8.5c5.6,33.9,28.8,55.5,42.2,65.4   c0.3,0.2,0.6,0.4,0.9,0.6c3.6,2,7.2,0.6,9.3-2.1c2.2-2.8,2.7-7-0.5-9.9C144,274.4,143.8,274.2,143.5,274z"/><path d="M120.3,205c-3.1,1.4-5.2,4.7-3.8,8.9c7.6,22.1,22.5,37.7,33.7,46.8c7.3,6,16.8-5.2,9.7-11.4c-0.1-0.1-0.2-0.2-0.2-0.2   c-9.7-7.9-22.6-21.3-29-40C129,204,124,203.2,120.3,205z"/><path d="M503.1,242.5c0.1,0,0.3,0,0.4,0.1c4.4,0.6,8.3-3,8.4-7.2c0-0.3,0-0.5,0-0.8c0-0.1,0-0.3,0-0.4c0-0.6-0.2-1.2-0.5-1.8   c0-0.2-0.1-0.3-0.2-0.6c0-0.2-0.1-0.3-0.2-0.5c0,0,0,0,0,0c-0.1-0.4-0.3-0.8-0.4-1.2c0,0,0-0.1-0.1-0.2c-0.1-0.4-0.3-0.8-0.4-1.3   c0,0,0-0.1,0-0.1c-0.1-0.3-0.2-0.5-0.3-0.8c-0.1-0.2-0.1-0.3-0.2-0.5c-0.1-0.3-0.2-0.6-0.3-0.9c-0.2-0.6-0.5-1.2-0.7-1.8   c-0.2-0.6-0.5-1.2-0.7-1.9c0-0.1,0-0.1-0.1-0.2c-0.2-0.4-0.3-0.8-0.5-1.2c0,0,0,0,0-0.1c-0.2-0.4-0.4-0.8-0.5-1.3c0,0,0,0,0-0.1   c-0.2-0.4-0.3-0.8-0.5-1.2c-1.4-3.3-3.2-7.1-5.2-11.1c-0.2-0.4-0.4-0.9-0.7-1.3c-0.3-0.6-0.7-1.3-1-1.9c-0.3-0.5-0.6-1.1-0.9-1.7   c-0.3-0.5-0.6-1.1-0.9-1.7c-0.5-1-1.1-2-1.7-2.9c-0.4-0.6-0.7-1.2-1.1-1.8c-0.8-1.3-1.6-2.5-2.4-3.8c-4.7-7.1-9.6-13.4-14.8-18.7   c-0.6-0.6-1.2-1.2-1.8-1.8c-2.4-2.3-4.8-4.5-7.3-6.4c-1.6-1.3-3.3-2.5-5-3.6c-0.8-0.5-1.5-1-2.3-1.5c-0.3-0.2-0.6-0.4-1-0.6   c-1-0.6-1.9-1.1-2.9-1.6c-0.6-0.3-1.2-0.6-1.8-0.9c-3.3-1.7-6.7-3-10.1-4c-0.5-0.2-1-0.3-1.5-0.4c-2.2-0.6-4.5-1.1-6.7-1.5   c-0.5-0.1-0.9-0.1-1.4-0.2c-0.9-0.1-1.9-0.2-2.8-0.3c-0.7-2.2-1.5-4.4-2.3-6.6c0.4-0.3,0.8-0.6,1.2-1c1.9-1.6,3.7-3.2,5.4-5   c3-3,5.6-6.3,7.8-9.7c0.6-1,1.3-2,1.8-3c0.6-1,1.1-2,1.7-3c0.3-0.6,0.6-1.3,1-1.9c0.4-1,0.9-1.9,1.3-2.9c0.4-1,0.8-2,1.1-2.9   c0.2-0.5,0.4-1.1,0.5-1.6c0.2-0.4,0.3-0.9,0.4-1.3c0.2-0.7,0.4-1.3,0.5-2c0.1-0.6,0.3-1.1,0.4-1.7c0.2-1,0.4-2,0.6-3   c0-0.1,0.1-0.3,0.1-0.4c0.1-0.5,0.2-0.9,0.2-1.3c0.1-0.5,0.1-0.9,0.2-1.4c0-0.2,0-0.3,0.1-0.5c0.1-0.9,0.2-1.8,0.2-2.8   c0-0.1,0-0.2,0-0.3c0-0.4,0-0.8,0-1.3c0-0.1,0-0.2,0-0.3c0-0.5,0-1,0-1.5c0-6.7-1.3-13.3-3.8-19.4c-0.3-0.6-0.5-1.3-0.8-1.9   c-0.5-1-0.9-1.9-1.4-2.8c-0.3-0.6-0.7-1.2-1.1-1.8c-0.7-1.2-1.5-2.4-2.4-3.5c-0.4-0.6-0.9-1.1-1.3-1.7c-0.9-1-1.8-2.1-2.7-3   c-9.2-9.3-22.2-14.6-36.3-14.6c-14.4,0-28.9,5.4-40.7,15.1c-0.2,0.1-0.3,0.3-0.5,0.4c-9.3-5.3-19.8-9.7-31.7-12.9   c-1.1-0.3-2.3-0.6-3.4-0.9c-1-0.2-1.9-0.5-2.9-0.7c-0.8-0.2-1.6-0.4-2.4-0.5c-1.2-0.3-2.4-0.5-3.6-0.7c0,0,0,0,0,0   c-1.2-0.2-2.4-0.4-3.7-0.6c-1.2-0.2-2.5-0.4-3.8-0.6c-0.6-0.1-1.3-0.2-2-0.3c-1.8-0.2-3.6-0.4-5.4-0.6c-0.9-0.1-1.8-0.2-2.7-0.2   c-0.7-0.1-1.4-0.1-2.1-0.1c-2.1-0.1-4.2-0.2-6.3-0.3c-9.3-0.3-19.2,0.1-29.7,1.3c-5.9,0.7-11.8,0.7-17.7,0   c-10.5-1.2-20.4-1.6-29.7-1.3c-2.1,0.1-4.3,0.2-6.3,0.3c-0.7,0-1.4,0.1-2.1,0.1c-0.9,0.1-1.8,0.2-2.7,0.2c-1.8,0.2-3.6,0.4-5.4,0.6   c-0.7,0.1-1.3,0.2-2,0.3c-1.3,0.2-2.5,0.4-3.8,0.6c-1.2,0.2-2.5,0.4-3.7,0.6h0c-1.2,0.2-2.4,0.5-3.6,0.7c-0.8,0.2-1.6,0.3-2.4,0.5   c-1,0.2-1.9,0.5-2.9,0.7c-1.1,0.3-2.3,0.6-3.4,0.9c-11.9,3.2-22.4,7.7-31.7,12.9c-0.2-0.1-0.3-0.3-0.5-0.4   c-11.8-9.7-26.2-15.1-40.7-15.1c-14.1,0-27.1,5.3-36.3,14.6c-1,1-1.9,2-2.7,3c-0.5,0.6-1,1.3-1.5,1.9c-0.5,0.6-0.9,1.3-1.4,2   c-0.3,0.4-0.6,0.9-0.9,1.3c-0.6,0.9-1.1,1.8-1.6,2.8c-0.8,1.5-1.5,3.1-2.2,4.8c-0.3,0.6-0.5,1.3-0.7,2c-0.2,0.7-0.4,1.3-0.6,2   c-6.2,20.8,1.7,45.8,21.4,62.1c0.4,0.3,0.8,0.6,1.2,1c-0.8,2.2-1.5,4.4-2.3,6.6c-0.9,0.1-1.9,0.2-2.8,0.3c-0.5,0.1-0.9,0.1-1.4,0.2   c-2.3,0.4-4.5,0.9-6.7,1.5c-0.5,0.1-1,0.3-1.5,0.4c-0.7,0.2-1.3,0.4-2,0.6c-2.7,0.9-5.4,2-8,3.4c-1,0.5-1.9,1-2.9,1.5   c-0.9,0.5-1.9,1.1-2.8,1.7c-0.8,0.5-1.5,1-2.3,1.5c-1.7,1.1-3.3,2.3-5,3.6c-0.7,0.5-1.3,1.1-2,1.6c-1.2,1-2.4,2.1-3.6,3.1   c-0.6,0.6-1.2,1.1-1.8,1.7s-1.2,1.2-1.8,1.8c-5.2,5.4-10.2,11.6-14.8,18.7c-0.8,1.3-1.6,2.5-2.4,3.8c-0.4,0.6-0.7,1.2-1.1,1.8   c-0.6,1-1.2,2-1.7,2.9c-0.3,0.6-0.6,1.1-0.9,1.7c-0.3,0.6-0.6,1.1-0.9,1.7c-0.3,0.7-0.7,1.3-1,1.9c-0.2,0.4-0.5,0.9-0.7,1.3   c-2,4-3.8,7.8-5.2,11.1c-0.2,0.4-0.3,0.8-0.5,1.2c0,0,0,0,0,0.1c-0.2,0.4-0.4,0.9-0.5,1.3c0,0,0,0,0,0.1c-0.2,0.4-0.3,0.8-0.5,1.2   c0,0,0,0.1-0.1,0.2c-0.3,0.6-0.5,1.3-0.7,1.9c-0.3,0.6-0.5,1.2-0.7,1.8c-0.1,0.3-0.2,0.6-0.3,0.9c-0.1,0.2-0.1,0.3-0.2,0.5   c-0.1,0.3-0.2,0.6-0.3,0.8c0,0,0,0.1,0,0.1c-0.2,0.5-0.3,0.9-0.4,1.3c0,0.1,0,0.1-0.1,0.2c-0.2,0.5-0.3,0.8-0.4,1.2c0,0,0,0,0,0   c-0.1,0.2-0.1,0.4-0.2,0.5c-0.1,0.2-0.1,0.4-0.2,0.6c-0.3,0.6-0.4,1.2-0.5,1.8c0,0.1,0,0.3,0,0.4c0,0.3,0,0.5,0,0.8   c0.1,4.3,4,7.8,8.4,7.2c0.1,0,0.3,0,0.4-0.1c0.2,0,0.3-0.1,0.5-0.1l14.4-3.6c-10,16.7-21.6,44.8-19.1,82.2c0,0.3,0,0.5,0.1,0.7   c0.1,0.5,0.2,1,0.4,1.4v0c0.2,0.4,0.4,0.9,0.6,1.3c0,0,0,0,0,0c0.2,0.3,0.4,0.5,0.6,0.8c0.3,0.4,0.6,0.7,1,1h0   c0.7,0.6,1.6,1.1,2.5,1.4c0.3,0.1,0.6,0.2,0.9,0.3c1,0.2,2.1,0.2,3.2-0.1c0.3-0.1,0.5-0.1,0.8-0.2c0,0,0.3-0.1,0.8-0.3l0.4-0.2   c0.2-0.1,0.5-0.2,0.8-0.3l0.5-0.2c0.1,0,0.2-0.1,0.3-0.1l1.1-0.4c0.4-0.1,0.8-0.3,1.2-0.4l0.8-0.3c3.1-1.1,6.7-2.4,9.3-3.4   c0.2-0.1,0.4-0.2,0.7-0.2c1.8-0.7,3-1.1,3-1.1c-1.9,17.5-2.5,48.8,13.8,69.5c0.2,0.2,0.4,0.4,0.6,0.6c1.8,1.8,4.5,2.5,6.9,2   c0.4-0.1,0.8-0.2,1.1-0.3c0.4-0.1,0.7-0.3,1.1-0.5c0.3-0.2,0.7-0.4,1-0.7c0.2-0.2,0.4-0.4,0.6-0.6c0.1-0.1,0.2-0.2,0.3-0.3   c0,0,9.5-11,9.5-11c5.5,13.4,17.8,33.9,44.5,50.3c3.4,2.1,7.5,1,9.8-1.8c0.1-0.1,0.2-0.3,0.3-0.4c0.1-0.1,0.2-0.3,0.3-0.4   c0.1-0.2,0.3-0.5,0.4-0.7c0.4-0.7,0.6-1.5,0.7-2.4l0-0.3c0-0.1,0-0.2,0-0.4c0-0.2,0-0.3,0-0.5c0-0.2,0-0.4,0.1-0.7l0.1-1.2   c0-0.6,0.1-1.3,0.2-2l0.1-1.1c0.1-1,0.2-2,0.3-3c0-0.4,0.1-0.9,0.1-1.3c0.2-1.6,0.3-3.2,0.5-4.8c0-0.4,0.1-0.9,0.1-1.3   c0-0.2,0.1-0.4,0.1-0.7c0-0.4,0.1-0.9,0.1-1.3c0-0.4,0.1-0.9,0.1-1.3c0.1-1.1,0.2-2.1,0.3-3.1c0-0.4,0.1-0.7,0.1-1   c0.3-3.1,0.5-5.2,0.5-5.2c0.7,0.3,1.4,0.7,2.2,1.1c0.7,0.3,1.4,0.7,2.1,1c0.9,0.4,1.9,0.9,2.9,1.3c1.1,0.5,2.2,1,3.4,1.4   c1,0.4,2,0.8,3,1.2c1,0.3,1.9,0.7,2.9,1.1c1.5,0.5,3,1,4.6,1.5c0.5,0.2,1,0.3,1.6,0.5c0.5,0.2,1.1,0.3,1.6,0.5   c0.5,0.2,1.1,0.3,1.6,0.5c7.1,1.9,14.9,3.2,22.9,3.5c0.7,13.1,4.9,38.8,26.3,53.4c1.1,0.8,2.4,1.2,3.7,1.3c1.9,0.1,3.9-0.5,5.5-1.8   l15.6-13.6l0.5-0.4l24.1,19.2c1.2,1,2.7,1.5,4.2,1.6c1.8,0.1,3.7-0.4,5.2-1.6l23.6-18.8l15.6,13.6c1.6,1.4,3.5,2,5.5,1.8   c1.3-0.1,2.5-0.5,3.7-1.3c21.5-14.5,25.7-40.3,26.3-53.4c8-0.3,15.8-1.6,22.9-3.5c0.5-0.1,1.1-0.3,1.6-0.5c0.5-0.1,1.1-0.3,1.6-0.5   c0.5-0.2,1.1-0.3,1.6-0.5c1.6-0.5,3.1-1,4.6-1.5c1-0.4,2-0.7,2.9-1.1c1-0.4,2-0.8,3-1.2c1.2-0.5,2.3-1,3.4-1.4   c1-0.4,1.9-0.8,2.9-1.3c0.7-0.3,1.4-0.7,2.1-1c0.8-0.4,1.5-0.7,2.2-1.1l0.5,5.2l0.1,1l0.3,3.1l0.1,1.3l0.1,1.3l0.1,0.7l0.1,1.3   l1.3,13.4l0.1,0.7l0.1,1.3c0.5,5.4,6.7,8.5,11.4,5.7c26.7-16.4,39-36.9,44.5-50.3l9.5,11c0.1,0.1,0.2,0.2,0.3,0.3   c0.2,0.2,0.4,0.4,0.6,0.6c0.3,0.3,0.6,0.5,1,0.7c0.3,0.2,0.7,0.4,1.1,0.5c0.4,0.1,0.7,0.3,1.1,0.3c2.4,0.5,5.1-0.2,6.9-2   c0.2-0.2,0.4-0.4,0.6-0.6c16.3-20.7,15.7-52,13.8-69.5l3,1.1l0.7,0.2l9.3,3.4l0.8,0.3l1.2,0.4l1.1,0.4l0.3,0.1l0.5,0.2l0.8,0.3   l0.4,0.2l0.8,0.3c0.3,0.1,0.5,0.2,0.8,0.2c1.1,0.3,2.2,0.3,3.2,0.1c0.3-0.1,0.6-0.2,0.9-0.3c0.9-0.3,1.8-0.8,2.5-1.4c0,0,0,0,0,0   c0.4-0.3,0.7-0.6,1-1c0.2-0.3,0.4-0.5,0.6-0.8c0,0,0,0,0,0c0.3-0.4,0.5-0.8,0.6-1.3c0,0,0,0,0,0c0.2-0.4,0.3-0.9,0.4-1.4   c0-0.2,0.1-0.5,0.1-0.7c2.5-37.4-9.2-65.5-19.1-82.2l14.4,3.6C502.8,242.5,503,242.5,503.1,242.5z M381,69.2   c0.5-0.3,1.1-0.6,1.6-0.9c0.5-0.3,1.1-0.6,1.6-0.9c6.8-3.4,14.1-5.3,21.4-5.3c11.2,0,21,4.3,27.5,12.1c6.3,7.6,8.5,17.5,7.1,27.4   c-0.1,0.6-0.2,1.3-0.3,1.9c-1.1,5.7-3.4,11.4-6.8,16.6c-0.5,0.7-0.9,1.4-1.4,2c0,0,0,0,0,0c-0.5,0.7-1,1.3-1.5,2   c-1.6,2-3.3,3.9-5.3,5.7c-1.4-3.1-3-6.1-4.6-9.1c1.6-1.7,3-3.4,4.2-5.2c0.3-0.5,0.6-0.9,0.9-1.4c1.4-2.3,2.6-4.7,3.5-7.1   c0.2-0.5,0.4-1.1,0.5-1.6v0c0.1-0.3,0.2-0.5,0.3-0.8c0.2-0.5,0.3-1.1,0.4-1.6c0.1-0.3,0.1-0.5,0.2-0.8c0,0,0,0,0,0   c0.2-1.1,0.4-2.2,0.5-3.2c0-0.3,0.1-0.5,0.1-0.8c0-0.4,0-0.7,0.1-1.1c0-0.6,0-1.3,0-1.9c0-0.2,0-0.4,0-0.6c0-0.4,0-0.8-0.1-1.2   c0-0.3,0-0.5-0.1-0.8c-0.1-1-0.3-2.1-0.5-3.1c-0.2-1-0.6-2-0.9-3c-0.3-0.6-0.5-1.3-0.8-1.9c-0.8-1.6-1.7-3-2.8-4.4   c-6.2-7.5-15.2-8.6-20-8.6c-0.4,0-0.9,0-1.3,0c-0.9,0-1.7,0.1-2.5,0.2c-1.7,0.2-3.4,0.5-5.1,0.9c-0.8,0.2-1.7,0.5-2.5,0.7   c-0.8,0.3-1.6,0.6-2.5,0.9c-0.7,0.3-1.3,0.6-2,0.9c-0.5,0.3-1.1,0.5-1.6,0.8c-0.8,0.4-1.6,0.9-2.3,1.3c-2.5-2.2-5.2-4.3-8-6.3   C378.8,70.5,379.9,69.8,381,69.2z M411,105.6c-3.9-5.7-8.5-11.5-13.7-17.1c2.8-1.1,5.6-1.7,8.4-1.7c0.7,0,1.5,0,2.5,0.2   c0.4,0,0.8,0.1,1.1,0.2c0.8,0.2,1.6,0.5,2.3,0.8c0.4,0.2,0.7,0.4,1.1,0.7h0c0.4,0.3,0.7,0.5,1,0.8c0.2,0.2,0.3,0.3,0.4,0.5   c3,3.6,2.4,10.8-2,17.2c0-0.1-0.1-0.1-0.1-0.2C411.6,106.5,411.3,106.1,411,105.6z M192.7,63.3c5.4-1.3,10.8-2,16.3-2.4   c11.6-1.7,23.8-2,36.5-0.5c3.5,0.4,7,0.6,10.5,0.7c3.5-0.1,7-0.3,10.5-0.7c12.7-1.4,24.9-1.2,36.5,0.5c5.4,0.4,10.8,1.1,16.3,2.4   c96.5,23.2,131.3,140.3,97.2,225.8c-0.2,0.4-0.3,0.8-0.5,1.3c-0.8,2-1.7,4-2.6,6c-0.9,2-2.3,4.1-3,6.3c-9.4,18-24.1,35.2-44.6,40.3   c0,0,0,0-0.1,0c-0.1,0-0.3,0.1-0.4,0.1c0-0.8,0-1.7-0.1-2.5c0-0.6-0.1-1.1-0.1-1.7c0-0.5-0.1-0.9-0.1-1.4c0-0.5-0.1-0.9-0.1-1.4   c-0.3-2.7-0.7-5.4-1.1-8.1c-0.1-0.5-0.2-1.1-0.3-1.6c-0.4-1.8-0.7-3.6-1.2-5.4c-0.1-0.6-0.3-1.3-0.5-1.9c-0.1-0.3-0.1-0.5-0.2-0.8   c-0.1-0.2-0.1-0.4-0.2-0.6c-0.2-0.7-0.4-1.4-0.6-2.2c-0.2-0.6-0.3-1.2-0.5-1.8c-0.7-2.5-1.5-4.9-2.4-7.4c-0.2-0.6-0.4-1.3-0.7-1.9   c-0.2-0.6-0.5-1.3-0.7-1.9c-0.2-0.6-0.4-1.1-0.6-1.7c-0.8-2-1.6-3.9-2.4-5.8c-0.3-0.6-0.5-1.3-0.8-1.9c-0.3-0.6-0.6-1.3-0.9-1.9   c-0.3-0.6-0.6-1.3-0.9-1.9c-0.3-0.6-0.6-1.2-0.9-1.9c-1.9-3.9-3.9-7.7-6-11.6c-0.3-0.6-0.6-1.1-1-1.7c-1.2-2-2.3-4-3.6-6   c-0.6-0.9-1.1-1.8-1.7-2.7c-0.5-0.8-1.1-1.7-1.6-2.5c-0.3-0.5-0.7-1-1-1.5c-0.1-0.1-0.2-0.2-0.2-0.3c0,0-0.1-0.1-0.1-0.1   c-0.2-0.3-0.4-0.6-0.6-0.9c-0.4-0.6-0.8-1.1-1.2-1.7c-0.5-0.7-1-1.4-1.5-2.1c-6.7-9.6-14.2-18.8-22.4-27.1   c-0.8-0.8-1.5-1.6-2.4-2.3c-0.3-0.3-0.6-0.6-0.9-0.9c-0.1-0.1-0.2-0.2-0.3-0.3c-5.7-5.6-15.3,0.9-12.2,8.3c0,0,0,0.1,0.1,0.3   c0.4,0.9,1.4,3.6,2.8,7.7c0.1,0.2,0.2,0.5,0.2,0.7c0.2,0.7,0.5,1.5,0.7,2.2c0.2,0.5,0.3,1.1,0.5,1.6c0.3,0.8,0.5,1.7,0.8,2.6   c0.2,0.6,0.3,1.2,0.5,1.8c0.3,0.9,0.5,1.9,0.8,2.9c0.1,0.3,0.2,0.7,0.3,1c0.2,0.7,0.3,1.4,0.5,2.1c0.2,0.7,0.3,1.4,0.5,2.1   c0.5,2.2,1,4.5,1.4,6.8c0.1,0.4,0.1,0.8,0.2,1.2c0.2,0.9,0.3,1.8,0.5,2.7c0,0.3,0.1,0.6,0.2,1c0.1,0.8,0.3,1.7,0.4,2.5   c0,0.3,0.1,0.7,0.1,1c0.1,0.5,0.1,1,0.2,1.5c0.1,0.4,0.1,0.9,0.2,1.3c0.2,1.3,0.3,2.6,0.4,3.9c0.1,1.3,0.3,2.7,0.3,4   c0,0.4,0.1,0.8,0.1,1.3c0,0.1,0,0.1,0,0.2c0,0.8,0.1,1.7,0.1,2.6c0,0.6,0,1.2,0.1,1.8c0,0.3,0,0.7,0,1c0,2.1,0,4.2,0,6.3h-98.5   c-0.1-2.1-0.1-4.2,0-6.3c0-0.3,0-0.6,0-1c0-0.6,0-1.2,0.1-1.8c0-0.9,0.1-1.7,0.1-2.6c0-0.1,0-0.1,0-0.2c0-0.4,0.1-0.9,0.1-1.3   c0.1-1.3,0.2-2.7,0.3-4c0.1-1.3,0.3-2.6,0.4-3.9c0-0.4,0.1-0.9,0.2-1.3c0.1-0.5,0.1-1,0.2-1.5c0-0.3,0.1-0.7,0.1-1   c0.1-0.8,0.3-1.7,0.4-2.5c0.1-0.4,0.1-0.8,0.2-1.2c0.3-1.6,0.5-3.1,0.8-4.7c0.1-0.6,0.3-1.2,0.4-1.8c0.1-0.5,0.2-1,0.3-1.6   c0.2-1,0.4-2,0.7-3c0.1-0.5,0.2-1,0.4-1.5c0.2-0.7,0.3-1.4,0.5-2.1c0.1-0.5,0.3-1,0.4-1.5c0.4-1.5,0.8-2.9,1.2-4.2   c0.3-0.9,0.5-1.8,0.8-2.6c0.2-0.5,0.3-1.1,0.5-1.6c0.3-0.8,0.5-1.5,0.7-2.2c0.1-0.2,0.2-0.5,0.2-0.7c1.3-3.9,2.3-6.5,2.7-7.5   c0,0,0-0.1,0.1-0.1c0.1-0.2,0.1-0.3,0.1-0.3c3.1-7.3-6.4-13.9-12.2-8.3c-0.1,0.1-0.2,0.2-0.3,0.3c-0.3,0.3-0.7,0.7-1,1   c-0.8,0.7-1.5,1.5-2.3,2.2c-7.6,7.8-14.6,16.3-21,25.1c-0.5,0.6-0.9,1.3-1.4,2c-0.5,0.7-1,1.4-1.5,2.1c-0.4,0.6-0.8,1.1-1.2,1.7   c-0.2,0.3-0.5,0.7-0.7,1c-0.1,0.1-0.1,0.2-0.2,0.3c-0.3,0.5-0.7,1-1,1.5c-0.4,0.6-0.8,1.2-1.2,1.9c0,0,0,0,0,0   c-0.1,0.2-0.3,0.4-0.4,0.6c-0.6,0.9-1.2,1.8-1.7,2.7c-1.2,2-2.4,4-3.6,6c-0.3,0.6-0.6,1.1-1,1.7c-2.2,3.8-4.2,7.7-6,11.6   c-0.3,0.6-0.6,1.2-0.9,1.9c-0.3,0.6-0.6,1.3-0.9,1.9c-0.3,0.6-0.6,1.3-0.9,1.9c-0.3,0.6-0.5,1.3-0.8,1.9c-0.8,2-1.6,3.9-2.4,5.8   c-0.2,0.6-0.4,1.1-0.6,1.7c-0.2,0.6-0.5,1.3-0.7,1.9c-0.2,0.6-0.5,1.3-0.7,1.9c-0.9,2.5-1.7,5-2.4,7.4c-0.2,0.6-0.4,1.2-0.5,1.8   c-0.2,0.7-0.4,1.4-0.6,2.2c-0.1,0.2-0.1,0.4-0.2,0.6c0,0,0,0.1,0,0.1c-0.1,0.2-0.1,0.5-0.2,0.7c-0.2,0.6-0.3,1.3-0.5,1.9   c-0.4,1.8-0.8,3.6-1.2,5.4c-0.1,0.5-0.2,1.1-0.3,1.6c-0.5,2.7-0.9,5.4-1.1,8.1c-0.1,0.5-0.1,0.9-0.1,1.4c0,0.5-0.1,0.9-0.1,1.4   c0,0.6-0.1,1.1-0.1,1.7c0,0.8-0.1,1.7-0.1,2.5c-0.2,0-0.3-0.1-0.4-0.1c0,0,0,0-0.1,0c-20.5-5.1-35.2-22.3-44.6-40.3   c-0.8-2.2-2.2-4.3-3-6.3c-0.9-2-1.8-4-2.6-6c-0.2-0.4-0.3-0.8-0.5-1.3C61.5,203.6,96.2,86.5,192.7,63.3z M265.6,326.8   c-0.6,0.1-1.2,0.3-1.8,0.4c-0.3,0.1-0.6,0.1-1,0.2c-0.7,0.1-1.4,0.2-2.1,0.3c-0.8,0.1-1.6,0.2-2.4,0.2c-0.8,0-1.5,0.1-2.3,0.1h-0.1   c-0.8,0-1.5,0-2.3-0.1c-0.8,0-1.6-0.1-2.4-0.2c-0.7-0.1-1.4-0.2-2.1-0.3c-0.3,0-0.6-0.1-1-0.2c-9.8-1.9-19-7.1-27-12.8   c-0.3-0.2-0.6-0.5-0.9-0.7c-0.3-0.2-0.6-0.5-0.9-0.7h73.2c0,0,0,0,0,0c-0.3,0.2-0.6,0.4-0.9,0.6c-0.3,0.2-0.6,0.5-0.9,0.7   C283.2,319.8,274.7,324.7,265.6,326.8z M100.5,88c0.8-0.4,1.5-0.6,2.3-0.8c0.4-0.1,0.8-0.2,1.1-0.2c0.9-0.1,1.8-0.2,2.5-0.2   c2.8,0,5.6,0.6,8.4,1.7c-5.3,5.7-9.8,11.5-13.7,17.1c-0.3,0.4-0.6,0.9-0.9,1.3c0,0.1-0.1,0.1-0.1,0.2c-4.4-6.5-5-13.6-2-17.2   c0.1-0.2,0.3-0.3,0.4-0.5c0.3-0.3,0.6-0.6,1-0.8c0,0,0,0,0,0C99.8,88.4,100.1,88.2,100.5,88z M80.4,122.2   C80.4,122.2,80.4,122.2,80.4,122.2c-0.5-0.7-1-1.4-1.4-2.1c-3.4-5.3-5.7-10.9-6.8-16.6c-0.1-0.6-0.2-1.3-0.3-1.9   c-1.4-9.9,0.8-19.8,7.1-27.4c6.5-7.8,16.2-12.1,27.5-12.1c7.3,0,14.6,1.8,21.4,5.3c0.5,0.3,1.1,0.6,1.6,0.9   c0.5,0.3,1.1,0.6,1.6,0.9c1.1,0.6,2.1,1.3,3.2,2.1c-2.8,2.1-5.5,4.2-8,6.3c-0.8-0.5-1.5-0.9-2.3-1.3c-0.5-0.3-1.1-0.6-1.6-0.8   c-0.7-0.3-1.3-0.6-2-0.9c-0.8-0.3-1.6-0.6-2.5-0.9c-0.8-0.3-1.7-0.5-2.5-0.7c-1.7-0.4-3.4-0.7-5.1-0.9c-0.8-0.1-1.7-0.1-2.5-0.2   c-0.4,0-0.8,0-1.3,0c-4.8,0-13.8,1.1-20,8.6c-1.1,1.4-2.1,2.8-2.8,4.4c-0.3,0.6-0.6,1.3-0.8,1.9c-0.4,1-0.7,2-0.9,3s-0.4,2-0.5,3.1   c0,0.3-0.1,0.5-0.1,0.8c0,0.4-0.1,0.8-0.1,1.2c0,0.2,0,0.4,0,0.6c0,0.6,0,1.2,0,1.9c0,0.4,0,0.7,0.1,1.1c0,0.3,0.1,0.5,0.1,0.8   c0.1,1.1,0.3,2.2,0.5,3.2v0c0.1,0.3,0.1,0.5,0.2,0.8c0.1,0.5,0.3,1.1,0.4,1.6c0.1,0.3,0.2,0.5,0.3,0.8c0,0,0,0,0,0   c0.2,0.5,0.4,1.1,0.5,1.6c0.9,2.4,2.1,4.8,3.5,7.1c0.3,0.5,0.6,0.9,0.9,1.4c1.2,1.8,2.6,3.5,4.2,5.2c-1.6,3-3.1,6-4.6,9.1   c-1.9-1.8-3.7-3.7-5.3-5.7C81.4,123.5,80.9,122.9,80.4,122.2z M155.5,389.8c-1.8-0.5-3.5-1-5.1-1.6c-6.4-2.1-12-4.6-16.3-6.8   c-0.8-0.4-1.6-0.8-2.3-1.2c-0.4-0.2-0.7-0.4-1-0.6c-0.5-0.3-1-0.5-1.4-0.8c-0.5-0.3-0.9-0.5-1.2-0.7c-0.4-0.2-0.7-0.4-1-0.6l0,0   c-0.2-0.1-0.4-0.2-0.6-0.3c-0.1-0.1-0.2-0.1-0.3-0.2c-0.2-0.1-0.3-0.2-0.4-0.3c-0.5-0.3-0.7-0.4-0.7-0.5c-0.3-0.2-0.6-0.4-1-0.5   l0,0c-0.2-0.1-0.5-0.2-0.7-0.3c-0.2-0.1-0.4-0.1-0.6-0.2c-0.1,0-0.3-0.1-0.4-0.1c-0.2,0-0.4-0.1-0.7-0.1c-0.1,0-0.2,0-0.3,0   c-0.4,0-0.7,0-1.1,0c-0.3,0-0.5,0.1-0.7,0.1c-0.2,0-0.3,0.1-0.5,0.1c-0.2,0-0.4,0.1-0.6,0.2c-0.2,0.1-0.4,0.1-0.5,0.2   c-0.3,0.1-0.5,0.2-0.7,0.4c-0.2,0.1-0.3,0.2-0.5,0.3c-0.3,0.2-0.5,0.4-0.8,0.6c-0.2,0.1-0.3,0.3-0.4,0.4c-0.1,0.1-0.2,0.3-0.4,0.4   c-0.2,0.3-0.4,0.6-0.6,0.9c-0.1,0.2-0.2,0.3-0.3,0.5c-0.1,0.2-0.2,0.4-0.3,0.6c-0.2,0.4-0.3,0.8-0.3,1.2c-0.1,0.3-0.1,0.5-0.1,0.8   c0,0-0.1,0.6-0.1,1.5c0,0.2,0,0.5-0.1,0.7c-0.1,0.7-0.1,1.5-0.2,2.3c0,0.3-0.1,0.5-0.1,0.8c0,0.2,0,0.4-0.1,0.6   c0,0.4-0.1,0.7-0.1,1.1c-0.2,1.5-0.3,3.2-0.5,5c0,0.4-0.1,0.9-0.1,1.3c0,0.2,0,0.4-0.1,0.7c0,0.4-0.1,0.9-0.1,1.3   c0,0.4-0.1,0.9-0.1,1.3c0,0.2,0,0.4-0.1,0.6c0,0.4-0.1,0.8-0.1,1.2c-0.1,0.7-0.1,1.3-0.2,2c0,0.4-0.1,0.7-0.1,1.1   c0,0.4-0.1,0.7-0.1,1.1c-0.1,0.7-0.1,1.4-0.2,2c0,0.3,0,0.5-0.1,0.7c-0.2,1.7-0.3,2.7-0.3,2.7c-3.4-2.6-6.5-5.3-9.2-8   c-2-2-3.9-4-5.6-6c-0.3-0.3-0.6-0.7-0.8-1c-0.4-0.5-0.9-1.1-1.3-1.6c-0.2-0.2-0.3-0.4-0.5-0.7c-0.4-0.6-0.8-1.1-1.3-1.7l0,0   c-0.5-0.6-0.9-1.3-1.4-1.9c-3.8-5.4-6.4-10.5-8.1-14.7c-0.1-0.2-0.2-0.4-0.2-0.6c-1.2-3-2-5.5-2.5-7.3c-0.1-0.3-0.1-0.5-0.2-0.8   c0,0,0,0,0,0c-0.1-0.2-0.1-0.5-0.2-0.7c0,0,0-0.1,0-0.1c0-0.2-0.1-0.4-0.1-0.5c-0.2-0.7-0.2-1.1-0.2-1.2c0-0.2-0.1-0.5-0.2-0.7   c0-0.2-0.1-0.3-0.2-0.5c-0.1-0.2-0.1-0.3-0.2-0.5v0c-0.3-0.8-0.8-1.5-1.4-2.1c-0.1-0.1-0.2-0.2-0.3-0.4c-0.5-0.5-1-0.8-1.6-1.1   c-0.6-0.3-1.2-0.6-1.8-0.7c-1.2-0.3-2.6-0.3-3.8,0c-0.3,0.1-0.5,0.1-0.7,0.2c-0.3,0.1-0.6,0.2-0.8,0.4c-0.1,0.1-0.3,0.2-0.4,0.3   c-0.6,0.4-1.2,0.9-1.7,1.4c0,0-0.1,0.1-0.3,0.3l-0.8,0.9c-2.9,3.4-10.6,12.3-10.6,12.3c-6.4-13.3-7.1-30.2-6.4-42.9   c0-0.8,0.1-1.6,0.2-2.3c0-0.1,0-0.1,0-0.2c0-0.7,0.1-1.4,0.2-2.1c0-0.1,0-0.3,0-0.4c0.1-1,0.2-1.9,0.3-2.7c0.1-1,0.2-1.9,0.3-2.7   c0.1-0.4,0.1-0.8,0.2-1.2c0-0.4,0.1-0.8,0.1-1.1c0.1-0.3,0.1-0.6,0.1-0.8c0.1-0.5,0.2-1,0.2-1.4c0.1-0.7,0.2-1.3,0.3-1.9   c0.1-0.3,0.1-0.6,0.2-0.9c0.1-0.6,0.2-1,0.2-1.2c0,0,0-0.1,0-0.1c0,0,0-0.1,0-0.1l0,0c0.9-4.2-1.9-8-5.6-8.9   c-0.2,0-0.4-0.1-0.7-0.1c-1.2-0.2-2.4-0.1-3.6,0.4c0,0-1.5,0.5-3.7,1.4l-0.8,0.3c-0.4,0.2-0.8,0.3-1.3,0.5l-1.4,0.5   c-1.1,0.4-2.3,0.8-3.4,1.3l-0.9,0.3c-0.6,0.2-1.1,0.4-1.6,0.6l-0.8,0.3c-3.8,1.4-6.9,2.5-7.2,2.6c0,0,0,0,0,0   c0.3-33.5,13.3-57.7,21.4-69.7c0.3-0.4,0.5-0.8,0.8-1.1c0.3-0.4,0.5-0.7,0.8-1.1c0.1-0.2,0.3-0.4,0.4-0.5c0.3-0.3,0.5-0.7,0.7-1   c0.2-0.3,0.5-0.6,0.7-0.9c0.2-0.3,0.5-0.6,0.7-0.9c0.3-0.5,0.7-0.8,1-1.2c0.3-0.3,0.5-0.6,0.8-0.9c0.5-0.6,0.8-0.8,0.8-0.9   c0.4-0.4,0.7-0.8,0.9-1.2c1.8-2.8,1.3-6.3-0.5-8.7c-0.1-0.2-0.3-0.4-0.5-0.6c-0.1-0.1-0.2-0.2-0.3-0.3c-0.3-0.2-0.5-0.5-0.8-0.7   c0,0,0,0,0,0c-0.3-0.2-0.6-0.4-0.9-0.6c0,0,0,0,0,0c-0.2-0.1-0.4-0.2-0.7-0.3c-1.1-0.4-2.3-0.6-3.5-0.5c-0.3,0-0.6,0.1-0.9,0.2   c0,0,0,0,0,0c0,0-0.1,0-0.1,0c0,0-0.1,0-0.1,0l-0.3,0.1c-0.1,0-0.1,0-0.2,0c-0.1,0-0.1,0-0.2,0.1c-0.6,0.1-1.3,0.3-2.3,0.6   l-1.3,0.3c-0.6,0.2-1.3,0.3-1.9,0.5c-0.3,0.1-0.7,0.2-1,0.3l-1.9,0.5c-1,0.2-1.9,0.5-2.9,0.7l-0.9,0.2c-1.4,0.4-2.8,0.7-3.9,1   c-0.2,0-0.4,0.1-0.6,0.1c-0.1,0-0.3,0.1-0.4,0.1l-0.6,0.2c-0.9,0.2-1.5,0.4-1.8,0.4c-0.1,0-0.1,0-0.1,0c0.1-0.3,0.3-0.6,0.4-0.9   c0.1-0.1,0.1-0.3,0.2-0.4c0.2-0.4,0.4-0.9,0.6-1.3c0.4-0.9,0.9-1.9,1.4-2.9c0.7-1.4,1.3-2.8,2.1-4.2c0.5-1,1-2,1.6-3   c0.2-0.4,0.4-0.8,0.6-1.2c0.6-1.2,1.3-2.3,2-3.5c0.3-0.6,0.7-1.2,1-1.8c0.4-0.7,0.9-1.4,1.3-2.2c0.2-0.3,0.5-0.7,0.7-1.1   c0.2-0.3,0.5-0.7,0.7-1.1c0.2-0.3,0.4-0.6,0.6-0.9c0.2-0.3,0.4-0.7,0.7-1c0.3-0.4,0.6-0.8,0.8-1.2c0.3-0.3,0.5-0.7,0.7-1   c0.5-0.7,1.1-1.5,1.6-2.2c0,0,0,0,0,0c0.3-0.5,0.6-0.9,1-1.3c0.3-0.4,0.7-0.8,1-1.3c0.1-0.1,0.1-0.2,0.2-0.3   c0.2-0.2,0.3-0.4,0.4-0.5c0.5-0.7,1.1-1.3,1.7-2c0.3-0.4,0.7-0.8,1.1-1.2c0.3-0.4,0.7-0.8,1-1.1c0.5-0.6,1.1-1.2,1.6-1.8   c0.5-0.6,1.1-1.2,1.7-1.7c7.9-7.8,17.3-14.1,28.2-16.5c-2.3,9.6-4,19.5-5,29.8c-0.1,1-0.2,1.9-0.3,2.9c-0.1,0.9-0.1,1.7-0.2,2.6   c-0.1,0.9-0.1,1.9-0.2,2.8c0,0.1,0,0.2,0,0.2c0,0.8-0.1,1.6-0.1,2.4c-0.1,1.4-0.2,2.8-0.2,4.2c0,0.9,0,1.8-0.1,2.8   c-1,38.9,7.2,80.8,30.6,112.1c2.2,3,4.6,5.8,7.1,8.5c0,0,0,0.1,0.1,0.1c0.1,0.2,0.3,0.3,0.4,0.5c2.8,2.9,5.7,5.6,8.9,8.1   c0.5,0.4,0.9,0.7,1.4,1.1c8.3,6.3,17.8,11,28.3,13.2c0.4,0.1,0.8,0.2,1.2,0.2c0.4,0.1,0.8,0.1,1.2,0.2c0,0,0,0,0,0   c0.2,0,0.4,0.1,0.6,0.1c0.7,3.1,1.7,6.2,3,9.2c0.4,0.9,0.9,1.8,1.4,2.7c0.3,0.4,0.5,0.9,0.8,1.3c0.3,0.4,0.5,0.9,0.8,1.3   c0.3,0.4,0.5,0.8,0.8,1.2c0.8,1.2,1.8,2.3,2.7,3.3c0,0.1,0.1,0.1,0.2,0.2c0.7,0.8,1.5,1.5,2.4,2.2c0,0,0,0,0,0   c0.3,0.3,0.6,0.6,0.8,1c0.3,0.9,0.7,1.8,1,2.8v0c1.2,3.1,2.6,5.9,4.1,8.5C162.4,391.7,158.9,390.8,155.5,389.8z M290.4,431.7   c-1.6-1.4-3.6-2-5.6-1.8c-1.4,0.1-2.8,0.7-4,1.6l-24.3,19.4l-0.5-0.4l-23.8-19c-1.5-1.1-3.2-1.7-5-1.6c-2-0.2-4,0.4-5.6,1.8   L206,445.3c-9.6-9.2-13.1-22.4-14.3-31.9c0.3,0.1,0.6,0.2,0.9,0.3c0.3,0.1,0.5,0.2,0.8,0.3c0.6,0.2,1.2,0.4,1.7,0.5   c0.1,0,0.1,0,0.2,0.1c0.6,0.2,1.1,0.3,1.7,0.5c0.6,0.2,1.2,0.3,1.8,0.5c0.1,0,0.1,0,0.2,0c0.6,0.1,1.2,0.3,1.7,0.4   c0.6,0.1,1.2,0.3,1.8,0.4c0.1,0,0.1,0,0.2,0c0.6,0.1,1.2,0.2,1.7,0.3c0.8,0.1,1.7,0.3,2.5,0.4c0.4,0.1,0.8,0.1,1.2,0.2   c0.8,0.1,1.6,0.2,2.5,0.3c0.5,0,0.9,0.1,1.4,0.1c1.3,0.1,2.6,0.2,3.9,0.3c0.6,0,1.2,0.1,1.8,0.1c12.8,0.5,25.7-0.9,38.4-0.9   c12.6,0,25.6,1.3,38.4,0.9c0.6,0,1.2-0.1,1.8-0.1c1.3-0.1,2.6-0.2,3.9-0.3c0.5,0,1-0.1,1.4-0.1c0.8-0.1,1.6-0.2,2.5-0.3   c0.4,0,0.8-0.1,1.2-0.2c0.8-0.1,1.6-0.2,2.5-0.4c0.6-0.1,1.2-0.2,1.7-0.3c0.1,0,0.1,0,0.2,0c0.6-0.1,1.2-0.2,1.8-0.4   c0.6-0.1,1.2-0.3,1.7-0.4c0.1,0,0.1,0,0.2,0c0.6-0.1,1.2-0.3,1.8-0.5c0.6-0.1,1.1-0.3,1.7-0.5c0.1,0,0.2,0,0.2-0.1   c0.6-0.2,1.2-0.4,1.7-0.5c0.5-0.2,1-0.3,1.4-0.5c0.1,0,0.2-0.1,0.3-0.1c-1.2,9.5-4.7,22.7-14.3,31.9L290.4,431.7z M328.9,390.2   c-0.5,0.6-1.1,1.2-1.7,1.8c-0.2,0.2-0.4,0.4-0.7,0.6c-0.3,0.3-0.6,0.5-0.8,0.7c-0.6,0.5-1.2,1-1.8,1.4c-0.3,0.2-0.6,0.5-0.9,0.6   c-0.3,0.2-0.6,0.4-0.9,0.6c-0.3,0.2-0.6,0.4-0.9,0.5c-1.8,1.1-3.7,2-5.7,2.8c-0.3,0.1-0.7,0.3-1,0.4c-0.6,0.3-1.3,0.5-1.9,0.7   c-0.4,0.1-0.7,0.2-1,0.3c-0.3,0.1-0.7,0.2-1,0.3c-0.3,0.1-0.7,0.2-1,0.3c0,0-0.1,0-0.1,0c-0.6,0.2-1.3,0.3-2,0.5   c-0.3,0.1-0.7,0.1-1,0.2c-0.3,0.1-0.7,0.1-1,0.2c-0.1,0-0.2,0-0.3,0.1c-0.3,0.1-0.7,0.1-1,0.2c-0.3,0.1-0.5,0.1-0.8,0.1   c-0.7,0.1-1.4,0.2-2.1,0.3c-0.7,0.1-1.4,0.2-2.2,0.2c-0.7,0.1-1.4,0.1-2.2,0.2c-1.1,0.1-2.2,0.1-3.3,0.2c-0.4,0-0.7,0-1.1,0   c-1.1,0-2.3,0-3.4,0c-0.5,0-1,0-1.5,0c-0.1,0-0.2,0-0.3,0c-0.8,0-1.6,0-2.4,0c-0.2,0-0.3,0-0.5,0c-0.9,0-1.7,0-2.6-0.1   c-0.6,0-1.2,0-1.8-0.1c-0.7,0-1.4-0.1-2.1-0.1c-1.1-0.1-2.2-0.1-3.4-0.2c-0.8,0-1.6-0.1-2.5-0.1c-1.3-0.1-2.6-0.2-3.9-0.2   c-4.2-0.2-8.3-0.4-12.2-0.4s-8,0.2-12.2,0.4c-1.3,0.1-2.6,0.2-3.9,0.2c-0.8,0.1-1.7,0.1-2.5,0.1c-1.1,0.1-2.2,0.1-3.4,0.2   c-0.7,0-1.4,0.1-2.1,0.1c-0.6,0-1.2,0.1-1.8,0.1c-0.9,0-1.7,0.1-2.6,0.1c-0.2,0-0.3,0-0.5,0c-0.8,0-1.6,0-2.4,0h-0.3   c-0.5,0-1,0-1.5,0c-1.1,0-2.3,0-3.4,0c-0.4,0-0.7,0-1.1,0c-1.1,0-2.2-0.1-3.3-0.2c-0.7,0-1.4-0.1-2.2-0.2c-0.7-0.1-1.4-0.1-2.2-0.2   c-0.7-0.1-1.4-0.2-2.1-0.3c-0.3,0-0.5-0.1-0.8-0.1c-0.3,0-0.7-0.1-1-0.2c-0.1,0-0.2,0-0.3-0.1c-0.4-0.1-0.7-0.1-1-0.2   c-0.3-0.1-0.7-0.1-1-0.2c-0.7-0.2-1.3-0.3-2-0.5c-0.1,0-0.1,0-0.1,0c-0.3-0.1-0.7-0.2-1-0.3c-0.3-0.1-0.7-0.2-1-0.3   c-0.3-0.1-0.7-0.2-1-0.3c-0.6-0.2-1.3-0.5-1.9-0.7c-0.3-0.1-0.7-0.3-1-0.4c-1.9-0.8-3.8-1.7-5.7-2.8c-0.3-0.2-0.6-0.4-0.9-0.5   c-0.3-0.2-0.6-0.4-0.9-0.6c-0.3-0.2-0.6-0.4-0.9-0.6c-0.6-0.4-1.2-0.9-1.8-1.4c-0.3-0.2-0.6-0.5-0.8-0.7c-0.2-0.2-0.4-0.4-0.7-0.6   c-0.6-0.6-1.2-1.2-1.8-1.8c-0.1-0.1-0.2-0.2-0.3-0.3c0,0,0,0,0.1,0c0.1,0,0.2,0,0.3,0c0.6,0.1,1.2,0.1,1.7,0.2c0,0,0,0,0,0   c0.6,0,1.2,0.1,1.7,0.1c0.4,0,0.8,0,1.2,0c0.6,0,1.2,0,1.8,0c12,0,24.3-3.7,36.2-7.2h0c1.2-0.4,2.4-0.7,3.6-1.1c0,0,0,0,0,0   c0.5-0.2,1.1-0.3,1.6-0.5c8-2.4,16.1-4.6,24.5-4.7c0.2,0,0.3,0,0.5,0c0.2,0,0.3,0,0.5,0c8.3,0.1,16.5,2.3,24.5,4.7   c0.5,0.2,1.1,0.3,1.6,0.5c0,0,0,0,0,0c1.2,0.4,2.4,0.7,3.6,1.1c11.9,3.5,24.2,7.2,36.2,7.2c0.6,0,1.2,0,1.8,0c0.4,0,0.8,0,1.2,0   c0.6,0,1.2-0.1,1.7-0.1c0,0,0,0,0,0c0.6,0,1.2-0.1,1.7-0.2c0.1,0,0.2,0,0.3,0c0,0,0.1,0,0.1,0C329.1,390,329,390.1,328.9,390.2z    M345.2,365.2c-0.9,1.2-2,2.4-3.2,3.4c-0.7,0.6-1.4,1.2-2.2,1.7c-0.3,0.2-0.7,0.5-1,0.7c-0.3,0.2-0.6,0.4-0.9,0.5   c-4.7,2.6-10.2,3.8-15.5,3.8c-9,0-19.3-2.8-29.3-5.8c-0.6-0.2-1.2-0.4-1.8-0.5c-0.3-0.1-0.6-0.2-0.9-0.3c-2.1-0.6-4.2-1.3-6.4-1.9   c-0.6-0.2-1.1-0.3-1.7-0.5c-8.4-2.4-16.8-4.5-25.6-4.5c-0.4,0-0.7,0-1.1,0c-0.2,0-0.4,0-0.6,0c-8.7,0.1-17.2,2.1-25.6,4.5   c-0.6,0.2-1.1,0.3-1.7,0.5c-2.1,0.6-4.3,1.3-6.4,1.9h0c-0.3,0.1-0.6,0.2-0.9,0.3c-0.6,0.2-1.2,0.3-1.8,0.5   c-10,2.9-20.2,5.8-29.3,5.8c-5.3,0-10.8-1.2-15.5-3.8c-0.3-0.2-0.6-0.4-0.9-0.5c-0.3-0.2-0.7-0.4-1-0.7c-0.7-0.5-1.5-1.1-2.2-1.7   c-1.2-1-2.3-2.2-3.2-3.4c-0.1-0.2-0.3-0.4-0.4-0.6c-0.2-0.2-0.3-0.5-0.5-0.7c-4.6-7.5-4.6-18-3.7-26.3c0.3-2.6,0.6-5.1,1.1-7.7   c0-0.1,0-0.2,0.1-0.3c0.3-1.7,0.7-3.3,1.1-4.8c0.3-1.3,0.7-2.7,1-4c4.6-16.8,13.5-36.2,26.6-55c0.5-0.7,1-1.4,1.5-2.1   c0.5-0.7,1-1.4,1.5-2c-1.2,5.8-2.1,12.2-2.7,19c-0.1,1-0.2,1.9-0.2,2.9c0,0.7-0.1,1.5-0.1,2.2c-0.1,2.1-0.2,4.3-0.2,6.4   c0,2.7,0,5.4,0.1,8.1c0,1,0.1,1.9,0.2,2.9s0.1,1.9,0.2,2.9c0,0.1,0,0.2,0,0.3c0.4,4.9,5.6,8.2,8.9,11.2c4.1,3.7,9.9,8.5,16.8,12.8   c0.5,0.3,0.9,0.6,1.4,0.9c4.3,2.7,9.1,5.2,14.2,7.2c0.4,0.1,0.7,0.3,1.1,0.4c0.7,0.3,1.4,0.5,2.2,0.8c0.4,0.1,0.7,0.3,1.1,0.4   c2.2,0.7,4.4,1.3,6.7,1.8c0.4,0.1,0.7,0.2,1.1,0.2c0.6,0.1,1.2,0.2,1.9,0.3c0.3,0,0.7,0.1,1,0.2c0.4,0.1,0.8,0.1,1.1,0.1   c0.3,0,0.6,0.1,0.9,0.1c0.3,0,0.6,0.1,0.9,0.1c0.4,0,0.7,0.1,1.1,0.1c0.2,0,0.4,0,0.6,0c0.6,0,1.2,0.1,1.8,0.1c0.4,0,0.8,0,1.2,0   s0.8,0,1.2,0c0.6,0,1.2,0,1.8-0.1c0.2,0,0.4,0,0.6,0c0.4,0,0.7,0,1.1-0.1c0.3,0,0.6,0,0.9-0.1c0.3,0,0.6-0.1,0.9-0.1   c0.4,0,0.8-0.1,1.1-0.1c0.3,0,0.7-0.1,1-0.2c0.6-0.1,1.3-0.2,1.9-0.3c0.4-0.1,0.7-0.1,1.1-0.2c2.3-0.5,4.5-1.1,6.7-1.8   c0.4-0.1,0.7-0.2,1.1-0.4c3.2-1.1,6.2-2.4,9.2-3.9c0.3-0.1,0.6-0.3,0.9-0.5c0.3-0.2,0.6-0.3,0.9-0.5c0.6-0.3,1.2-0.6,1.8-1   c0.2-0.1,0.4-0.2,0.5-0.3c0.4-0.2,0.8-0.5,1.2-0.7c0.5-0.3,1.1-0.6,1.6-1c0,0,0.1,0,0.1-0.1c0.5-0.3,1-0.6,1.4-0.9   c0.7-0.4,1.3-0.8,2-1.3c0.5-0.3,1-0.7,1.5-1c0.5-0.4,1-0.7,1.6-1.1c0.5-0.4,1-0.7,1.5-1.1c1-0.7,2-1.4,2.9-2.1   c3.3-2.5,6.1-4.9,8.4-7c3.3-3,8.5-6.3,8.9-11.2c0-0.1,0-0.2,0-0.3c0.1-1,0.1-1.9,0.2-2.9s0.1-1.9,0.2-2.9c0.1-2.7,0.2-5.4,0.1-8.1   c0-2.2-0.1-4.3-0.2-6.4c0-0.7-0.1-1.5-0.1-2.2c-0.1-1-0.1-1.9-0.2-2.9c-0.6-6.7-1.5-13.1-2.7-19c0.5,0.7,1,1.3,1.5,2   c0.5,0.7,1,1.4,1.5,2.1c13.1,18.8,22,38.1,26.6,55c0.4,1.3,0.7,2.7,1,4c0.4,1.5,0.7,3.1,1.1,4.8c0,0.1,0,0.2,0.1,0.3   c0.5,2.5,0.8,5.1,1.1,7.7c0.9,8.3,0.9,18.8-3.7,26.3c-0.1,0.3-0.3,0.5-0.5,0.7C345.5,364.8,345.4,365,345.2,365.2z M485,222.6   l-0.9-0.2l-1.9-0.5l-9.4-2.3l-0.2-0.1l-0.2,0l-0.3-0.1l-0.1,0l-0.1,0c0,0,0,0,0,0c-0.3-0.1-0.6-0.1-0.9-0.2c-1.3-0.2-2.5,0-3.5,0.5   c-0.2,0.1-0.5,0.2-0.7,0.3c0,0,0,0,0,0c-0.3,0.2-0.6,0.3-0.9,0.6c0,0,0,0,0,0c-0.3,0.2-0.5,0.4-0.8,0.7c-0.1,0.1-0.2,0.2-0.3,0.3   c-0.2,0.2-0.3,0.4-0.5,0.6c-1.9,2.4-2.4,5.9-0.5,8.7c0.3,0.4,0.6,0.8,0.9,1.2c0,0,0.3,0.3,0.8,0.9c0.2,0.2,0.5,0.5,0.8,0.9   c0.3,0.3,0.6,0.7,1,1.2c0.2,0.3,0.4,0.5,0.7,0.9c0.2,0.3,0.5,0.6,0.7,0.9c0.2,0.3,0.5,0.6,0.7,1c0.1,0.2,0.3,0.3,0.4,0.5   c0.3,0.3,0.5,0.7,0.8,1.1c0.3,0.4,0.5,0.7,0.8,1.1c8.2,11.9,21.2,36.1,21.4,69.7c0,0,0,0,0,0l-7.2-2.6l-0.8-0.3l-1.6-0.6l-0.9-0.3   l-3.4-1.3l-1.4-0.5l-1.3-0.5l-0.8-0.3l-3.7-1.4c-1.2-0.5-2.5-0.5-3.6-0.4c-0.2,0-0.4,0.1-0.7,0.1c-3.7,0.9-6.5,4.7-5.6,8.9l0,0   c0,0,0,0,0,0.1c0,0,0,0.1,0,0.1c0,0.2,0.1,0.6,0.2,1.2c0,0.3,0.1,0.6,0.2,0.9c0.1,0.5,0.2,1.1,0.3,1.9c0.1,0.5,0.2,0.9,0.2,1.4   c0,0.3,0.1,0.6,0.1,0.8c0,0.4,0.1,0.7,0.1,1.1c0.1,0.4,0.1,0.8,0.2,1.2c0.1,0.9,0.2,1.8,0.3,2.7c0.1,0.9,0.2,1.8,0.3,2.7   c0,0.1,0,0.3,0,0.4c0.1,0.7,0.1,1.4,0.2,2.1c0,0.1,0,0.1,0,0.2c0.1,0.8,0.1,1.5,0.2,2.3c0.7,12.8,0,29.6-6.4,42.9L447,360.6   l-0.8-0.9l-0.3-0.3c-0.5-0.6-1.1-1.1-1.7-1.4c-0.1-0.1-0.3-0.2-0.4-0.3c-0.3-0.1-0.5-0.3-0.8-0.4c-0.2-0.1-0.5-0.2-0.7-0.2   c-1.3-0.3-2.6-0.3-3.8,0c-0.6,0.2-1.3,0.4-1.8,0.7c-0.6,0.3-1.1,0.7-1.6,1.1c-0.1,0.1-0.2,0.2-0.3,0.4c-0.6,0.6-1,1.3-1.4,2.1v0   c-0.1,0.3-0.3,0.7-0.3,1c-0.1,0.3-0.1,0.5-0.2,0.8c-0.1,0.8-2.1,12.1-11.6,25.8c-0.4,0.6-0.9,1.3-1.4,1.9c0,0,0,0,0,0   c-0.4,0.5-0.8,1.1-1.3,1.7c-0.2,0.2-0.3,0.4-0.5,0.7c-0.4,0.5-0.9,1.1-1.3,1.6c-0.3,0.3-0.6,0.7-0.8,1c-1.7,2-3.6,4-5.6,6   c-2.7,2.7-5.8,5.4-9.2,8l-0.3-2.7l-0.1-0.7l-0.2-2l-0.1-1.1l-0.1-1.1l-0.2-2l-0.1-1.2l-0.1-0.6l-0.1-1.3l-0.1-1.3l-0.1-0.7   l-0.1-1.3l-0.5-5L399,388l-0.1-0.6l-0.1-0.8l-0.2-2.3l-0.1-0.7l-0.1-1.5c0-0.3-0.1-0.5-0.1-0.8c-0.1-0.4-0.2-0.8-0.3-1.2   c-0.1-0.2-0.2-0.4-0.3-0.6c-0.1-0.2-0.2-0.3-0.3-0.5c-0.2-0.3-0.4-0.6-0.6-0.9c-0.1-0.1-0.2-0.3-0.4-0.4c-0.1-0.2-0.3-0.3-0.4-0.4   c-0.3-0.2-0.5-0.4-0.8-0.6c-0.2-0.1-0.3-0.2-0.5-0.3c-0.2-0.1-0.5-0.3-0.7-0.4c-0.2-0.1-0.3-0.1-0.5-0.2c-0.2-0.1-0.4-0.2-0.6-0.2   c-0.2,0-0.3-0.1-0.5-0.1c-0.3,0-0.5-0.1-0.7-0.1c-0.4,0-0.7-0.1-1.1,0c-0.1,0-0.2,0-0.3,0c-0.2,0-0.5,0-0.7,0.1   c-0.1,0-0.3,0.1-0.4,0.1c-0.2,0-0.4,0.1-0.6,0.2c-0.3,0.1-0.5,0.2-0.7,0.3c0,0,0,0,0,0c-0.3,0.1-0.7,0.3-1,0.5v0c0,0,0,0-0.1,0   c0,0-0.1,0.1-0.2,0.1c-0.1,0-0.2,0.1-0.3,0.2c-0.1,0.1-0.2,0.1-0.3,0.2c-0.3,0.1-0.6,0.3-0.9,0.6c-0.5,0.3-1.2,0.7-2,1.1   c-0.1,0.1-0.3,0.2-0.4,0.3c-0.4,0.2-0.9,0.5-1.4,0.8c-0.2,0.1-0.3,0.2-0.5,0.3c-0.9,0.5-1.8,0.9-2.8,1.5c-4.3,2.1-9.9,4.6-16.3,6.8   c-1.7,0.6-3.4,1.1-5.1,1.6c-3.4,1-7,1.8-10.7,2.4c1.5-2.6,2.9-5.4,4.1-8.5c0.4-0.9,0.7-1.8,1-2.8c0.2-0.4,0.5-0.7,0.8-1   c0,0,0,0,0,0c0.8-0.7,1.6-1.4,2.4-2.2c0.1-0.1,0.1-0.1,0.2-0.2c1-1,1.9-2.1,2.7-3.3c0.3-0.4,0.6-0.8,0.8-1.2   c0.3-0.4,0.6-0.9,0.8-1.3c0.3-0.4,0.5-0.9,0.8-1.3c0.5-0.9,1-1.8,1.4-2.7c1.4-3,2.4-6.1,3-9.2c0.2,0,0.4-0.1,0.6-0.1   c0.4-0.1,0.8-0.1,1.2-0.2c0.4-0.1,0.8-0.2,1.2-0.2c10.4-2.2,19.9-6.8,28.3-13.2c0.5-0.3,0.9-0.7,1.4-1.1c3.2-2.5,6.1-5.2,8.9-8.1   c0.2-0.2,0.3-0.3,0.4-0.5c0,0,0-0.1,0.1-0.1c2.5-2.7,4.9-5.5,7.1-8.5c23.5-31.4,31.6-73.3,30.6-112.1c0-0.9,0-1.8-0.1-2.8   c0-0.9-0.1-1.8-0.1-2.7c0-0.5,0-1-0.1-1.5c0-0.8-0.1-1.6-0.1-2.4c-0.1-1-0.1-2.1-0.2-3.1c-0.1-0.9-0.1-1.7-0.2-2.6   c-0.1-1-0.2-1.9-0.3-2.9c-1-10.3-2.7-20.2-5-29.8c11,2.4,20.4,8.7,28.2,16.5c0.6,0.6,1.1,1.1,1.7,1.7c0.6,0.6,1.1,1.2,1.6,1.8   c0.3,0.4,0.7,0.8,1,1.1c0.4,0.4,0.7,0.8,1.1,1.2c0.5,0.6,1,1.2,1.5,1.8c0.3,0.3,0.6,0.7,0.8,1c0.4,0.5,0.8,1,1.2,1.6   c0.8,1,1.6,2.1,2.3,3.1c0.4,0.5,0.8,1.1,1.1,1.6c0.5,0.8,1,1.5,1.5,2.3c0.6,1,1.3,1.9,1.8,2.9c0.6,1,1.2,1.9,1.8,2.9   c0.1,0.2,0.2,0.4,0.3,0.6c0.5,0.8,0.9,1.6,1.4,2.4c0.4,0.8,0.9,1.6,1.3,2.3c0.5,1,1.1,2,1.6,3c0.5,1,1,2,1.5,3   c1.2,2.4,2.2,4.7,3.1,6.8L485,222.6z"/></g><text x="0" y="527" fill="#000000" font-size="5px" font-weight="bold" font-family="'Helvetica Neue', Helvetica, Arial-Unicode, Arial, Sans-serif">Created by Muhammad Auns</text><text x="0" y="532" fill="#000000" font-size="5px" font-weight="bold" font-family="'Helvetica Neue', Helvetica, Arial-Unicode, Arial, Sans-serif">from the Noun Project</text></svg>