<svg xmlns="http://www.w3.org/2000/svg" xmlns:xlink="http://www.w3.org/1999/xlink" version="1.1" x="0px" y="0px" viewBox="0 0 512 640" enable-background="new 0 0 512 512" xml:space="preserve"><g><path d="M484,384.3c-4.7-11.2-9.4-22.5-13.7-34.7c-0.1-0.2-0.2-0.5-0.2-0.7c-0.3-0.7-0.5-1.5-0.8-2.2c-0.1-0.4-0.2-0.7-0.4-1.1   c-0.2-0.7-0.4-1.3-0.7-2c-0.2-0.6-0.4-1.2-0.6-1.9c-0.2-0.6-0.4-1.2-0.6-1.9c-0.3-0.9-0.6-1.8-0.9-2.8c-0.1-0.3-0.2-0.6-0.3-0.9   c-0.3-0.9-0.5-1.8-0.8-2.7c-0.1-0.3-0.1-0.5-0.2-0.8c-0.3-1.1-0.6-2.1-0.9-3.2c0-0.1,0-0.2-0.1-0.3c-5.5-20.5-9.2-44.1-9.2-73.7   c0-74.8-11.5-131-35.2-171.8C390.6,33.7,342.7,6,277,1.3c-6.8-0.5-13.8-0.7-21-0.7c-9.6,0-18.8,0.4-27.7,1.3   C166.1,8,120.4,35.4,92.4,83.7c-23.7,40.8-35.2,96.9-35.2,171.8c0,29.6-3.7,53.2-9.2,73.7c0,0.1-0.1,0.2-0.1,0.3   c-0.3,1.1-0.6,2.2-0.9,3.2c-0.1,0.3-0.1,0.5-0.2,0.8c-0.3,0.9-0.5,1.8-0.8,2.7c-0.1,0.3-0.2,0.6-0.3,0.9c-0.3,0.9-0.6,1.9-0.9,2.8   c-0.2,0.6-0.4,1.2-0.6,1.9c-0.2,0.6-0.4,1.2-0.6,1.9c-0.2,0.7-0.4,1.3-0.7,2c-0.1,0.4-0.2,0.7-0.4,1.1c-0.3,0.7-0.5,1.5-0.8,2.2   c-0.1,0.2-0.2,0.5-0.2,0.7c-4.3,12.2-9,23.6-13.7,34.7C14.2,417.1,0,451,0,503.9c0,4.1,3.4,7.5,7.5,7.5h497c1,0,2-0.2,2.9-0.6   c2-0.9,3.6-2.6,4.2-4.7c0.2-0.7,0.3-1.5,0.3-2.2C512,451,497.8,417.1,484,384.3z M115.1,350.1c1.5-2,3.1-3.9,4.8-5.8   c11-12.2,25-24.7,44.7-24.7c2.5,0,5,0.2,7.6,0.5c3.6,0.4,7.2,1.2,11,2.1c4.5,1,9.2,2.3,14.1,3.7c16.4,4.5,35,9.6,58.7,9.6   c2.2,0,4.4-0.1,6.5-0.1c20.6-0.8,37.3-5.4,52.2-9.5c5-1.4,9.6-2.6,14.1-3.7c4-0.9,7.8-1.7,11.5-2.1c2.4-0.3,4.8-0.5,7.1-0.5   c19.7,0,33.6,12.5,44.7,24.7c1.7,1.9,3.3,3.8,4.8,5.8c33.9,44.6,30.9,123.2,29.2,146.4H85.9C84.2,473.2,81.2,394.7,115.1,350.1z    M441.1,496.4c0.8-10.9,1.7-31.4-0.2-55.3c-3.8-47.4-16.5-83.4-37.7-106.9c-18.5-20.5-35.7-29.7-55.8-29.7c0,0,0,0,0,0c0,0,0,0,0,0   c-12.1,0-24,3.3-36.7,6.8c-15.5,4.3-33,9.1-54.7,9.1c-21.7,0-39.2-4.8-54.7-9.1c-12.7-3.5-24.7-6.8-36.7-6.8c0,0,0,0,0,0   c0,0,0,0,0,0c-20.1,0-37.3,9.2-55.8,29.7c-21.2,23.5-33.9,59.5-37.7,106.9c-1.9,23.8-1,44.4-0.2,55.3H15.1   c1.2-45.5,13.6-75.1,26.7-106.3c14.8-35.3,30.1-71.7,30.4-132.9c0,0,0,0,0,0l0-0.7c0-0.4,0-0.7,0-1.1c0-72.1,10.8-125.8,33.1-164.2   c13.8-23.7,32.3-42.1,55.2-54.5c19.3-10.5,42.2-17.1,68.3-19.8c8.7-0.9,17.8-1.3,27.2-1.3s18.5,0.4,27.2,1.3   c26.1,2.7,49,9.3,68.3,19.8c22.8,12.4,41.4,30.8,55.2,54.5c22.3,38.4,33.1,92.1,33.1,164.2c0,0.4,0,0.7,0,1.1l0,0.7c0,0,0,0,0,0   c0.3,61.1,15.6,97.6,30.4,132.9c13.1,31.2,25.5,60.8,26.7,106.3H441.1z"/><path d="M148.8,149.7c0.4,0.3,0.9,0.6,1.3,0.8c2.3,1.3,5,2,7.8,2h0l0,0c2.8,0,5.5-0.7,7.8-2c0.5-0.3,0.9-0.5,1.3-0.8   c4.3-2.9,7.2-7.9,7.2-13.5s-2.8-10.6-7.2-13.5c-0.4-0.3-0.9-0.6-1.3-0.8c-2.3-1.3-5-2-7.8-2l0,0h0c-2.8,0-5.5,0.7-7.8,2   c-0.5,0.3-0.9,0.5-1.3,0.8c-4.3,2.9-7.2,7.9-7.2,13.5S144.5,146.8,148.8,149.7z"/><path d="M320.2,161.5C320.2,161.5,320.2,161.5,320.2,161.5c1.1,1.5,2.3,2.9,3.6,4.2c0.1,0.1,0.3,0.3,0.4,0.4   c0.7,0.7,1.5,1.4,2.2,2.1c0.8,0.7,1.6,1.3,2.4,1.9c0,0,0,0,0,0c1.6,1.2,3.3,2.3,5.1,3.3c0.2,0.1,0.5,0.3,0.7,0.4   c5.8,3,12.4,4.7,19.4,4.7c9.5,0,18.2-3.1,25.3-8.4c1.6-1.2,3.2-2.6,4.6-4c1.9-1.9,3.6-4,5.2-6.3c1.1-1.7,2.2-3.5,3.1-5.3   c1.2-2.5,2.1-5.1,2.8-7.8c0.9-3.4,1.3-6.9,1.3-10.6v0l0,0c0-0.7,0-1.5-0.1-2.2c-1-19.4-15.2-35.4-33.7-39.3   c-2.8-0.6-5.6-0.9-8.5-0.9c-20.3,0-37.2,14.3-41.3,33.4c-0.6,2.9-0.9,5.8-0.9,8.9l0,0v0C311.8,145.7,314.9,154.4,320.2,161.5z    M356.9,109.1c13.7,1.4,24.5,13,24.5,27.1c0,3.8-0.8,7.3-2.1,10.6c-0.5,1.2-1.1,2.4-1.8,3.5c-0.5,0.8-0.9,1.5-1.5,2.2   c-0.3,0.4-0.5,0.7-0.8,1c-0.6,0.7-1.1,1.3-1.8,1.9c-1.9,1.9-4,3.4-6.3,4.7c-0.8,0.4-1.6,0.8-2.4,1.2c-3.3,1.4-6.9,2.1-10.6,2.1   c-1.1,0-2.3-0.1-3.4-0.2c-0.7-0.1-1.4-0.2-2.1-0.3c-4.7-1-8.9-3.1-12.4-6.2c-0.5-0.4-0.9-0.8-1.4-1.3c-0.4-0.4-0.9-0.9-1.3-1.4   c-0.3-0.4-0.7-0.8-1-1.2c-0.6-0.7-1.1-1.5-1.6-2.2c-1.2-2-2.2-4.1-2.9-6.4c-0.1-0.2-0.1-0.4-0.2-0.5c-0.2-0.5-0.3-1.1-0.4-1.7   c-0.2-0.9-0.4-1.8-0.5-2.7c-0.1-0.6-0.1-1.2-0.2-1.8c0-0.5,0-0.9,0-1.4c0-15,12.2-27.3,27.3-27.3C355,108.9,355.9,109,356.9,109.1z   "/><path d="M339.8,128.5c-1.3,2.3-2,5-2,7.8l0,0v0c0,2.8,0.7,5.5,2,7.8c0.3,0.5,0.5,0.9,0.8,1.3c2.9,4.3,7.9,7.2,13.5,7.2   s10.6-2.8,13.5-7.2c0.3-0.4,0.6-0.9,0.8-1.3c1.3-2.3,2-5,2-7.8v0l0,0c0-2.8-0.7-5.5-2-7.8c-2.8-5.1-8.1-8.5-14.3-8.5   S342.5,123.4,339.8,128.5z"/><path d="M157.9,178.5c5.5,0,10.8-1.1,15.7-3c0.2-0.1,0.5-0.2,0.7-0.3c1-0.4,2-0.9,2.9-1.4c0.2-0.1,0.5-0.2,0.7-0.4   c0.9-0.5,1.8-1,2.6-1.6c0.9-0.6,1.7-1.1,2.5-1.7c1.5-1.1,2.9-2.3,4.2-3.6c0.1-0.1,0.3-0.3,0.4-0.4c0.1-0.1,0.3-0.3,0.4-0.4   c1.3-1.3,2.5-2.7,3.6-4.2c0,0,0,0,0,0c1.2-1.6,2.3-3.3,3.3-5.1c0.1-0.2,0.3-0.5,0.4-0.7c3-5.8,4.7-12.4,4.7-19.4   c0-2.9-0.3-5.8-0.9-8.5c-4-19.3-21-33.8-41.4-33.8c-2.9,0-5.8,0.3-8.5,0.9c-19.3,4-33.8,21-33.8,41.4   C115.6,159.5,134.6,178.5,157.9,178.5z M157.9,108.9c14.1,0,25.7,10.8,27.1,24.5c0.1,0.9,0.1,1.8,0.1,2.8c0,1.1-0.1,2.3-0.2,3.4   c-0.1,0.7-0.2,1.4-0.3,2.1c-1,4.7-3.1,8.9-6.2,12.4c-0.4,0.5-0.8,0.9-1.3,1.4c-0.1,0.1-0.2,0.2-0.3,0.3c-0.7,0.7-1.5,1.4-2.3,2   c-0.6,0.5-1.3,1-2,1.4c-2,1.3-4.2,2.3-6.6,3.1c-0.1,0-0.3,0.1-0.4,0.1c-0.7,0.2-1.5,0.4-2.2,0.6c-0.7,0.1-1.4,0.3-2.2,0.3   c-1.1,0.1-2.2,0.2-3.3,0.2c-15,0-27.3-12.2-27.3-27.3c0-14.1,10.8-25.7,24.5-27.1C156.1,109,157,108.9,157.9,108.9z"/><path d="M381.9,187.7c-2.4-0.9-4.9-1.3-7.6-1.3H351c-10.5,0-18.5-1.4-24.9-3.7c-14-5.2-19.9-15.1-26.1-25.4   c-8.1-13.6-17.3-29-44-29c0,0,0,0,0,0s0,0,0,0c-26.7,0-35.9,15.4-44,29c-6.2,10.3-12.1,20.2-26.1,25.4c-6.4,2.4-14.4,3.7-24.9,3.7   h-23.3c-2.3,0-4.5,0.3-6.5,1c-9,2.8-15.5,11.2-15.5,21c0,12.1,9.9,22,22,22h0h28.6c2,4.1,5.8,9.5,12.9,14.8   c2.4,1.7,4.9,3.3,7.7,4.8c16.1,8.5,39.3,12.9,69,12.9h0h0c30.2,0,53.5-4.4,69.7-13.2c2.5-1.4,4.9-2.9,7.1-4.5   c7.2-5.2,10.9-10.7,12.9-14.8h28.6h0c12.1,0,22-9.9,22-22C396.4,198.9,390.3,190.8,381.9,187.7z M256.2,232.7c0.2,0,0.5,0,0.7-0.1   c1.5-0.2,2.9-0.8,4.1-1.9c13.2-11.9,31.8-7.6,47.6-4.5c2.4,0.5,4.8,1,7.2,1.4c3.3,0.6,6.7,1.2,10.1,1.7c0.4,0.1,0.8,0.1,1.2,0.2   c0.2,0,0.5,0.1,0.7,0.1c-7.7,7.7-26.5,18.3-71.9,18.3s-64.2-10.6-71.9-18.3c0.2,0,0.5-0.1,0.7-0.1c0.4-0.1,0.8-0.1,1.2-0.2   c3.4-0.5,6.7-1,10.1-1.7c2.4-0.5,4.9-0.9,7.3-1.4c15.7-3.1,34.3-7.5,47.6,4.5c1.4,1.3,3.2,1.9,5,1.9   C256.1,232.7,256.1,232.7,256.2,232.7z M340.5,215.5c-19.3,0-37.7-7.6-57.1-7.6c0,0,0,0,0,0c0,0,0,0,0,0c0,0,0,0-0.1,0   c-10.4,0-19.3,2.5-27,7.7c-0.1,0.1-0.2,0.1-0.3,0.2c-0.1-0.1-0.2-0.1-0.3-0.2c-7.7-5.1-16.6-7.7-27-7.7c0,0-0.1,0-0.1,0   c0,0,0,0,0,0c0,0,0,0,0,0c-19.3,0-37.7,7.6-57.1,7.6h-33.9c-3.9,0-7-3.2-7-7c0-3.6,2.8-6.6,6.3-7c0.2,0,0.5,0,0.7,0H161h0   c18.4,0,31.1-3.9,40.3-9.6c0.7-0.4,1.3-0.8,1.9-1.3c2.5-1.7,4.7-3.5,6.8-5.5c6.6-6.3,10.9-13.6,14.9-20.2   c7-11.8,12.2-20.5,27.9-21.5c1-0.1,2.1-0.1,3.3-0.1c1.7,0,3.3,0.1,4.8,0.2c14.5,1.5,19.5,10,26.4,21.4c0.9,1.5,1.8,3.1,2.8,4.7   c0.6,1,1.3,2.1,2,3.2c0.3,0.5,0.7,1.1,1.1,1.6c2.9,4.2,6.3,8.4,10.5,12.2c1.1,0.9,2.2,1.9,3.4,2.7c4.2,3.1,9.1,5.8,15.1,7.9   c7.7,2.7,17.2,4.3,29,4.3h23.3c0.2,0,0.5,0,0.7,0c3.5,0.4,6.3,3.4,6.3,7c0,3.9-3.2,7-7,7C374.3,215.5,340.6,215.5,340.5,215.5z"/></g><text x="0" y="527" fill="#000000" font-size="5px" font-weight="bold" font-family="'Helvetica Neue', Helvetica, Arial-Unicode, Arial, Sans-serif">Created by Muhammad Auns</text><text x="0" y="532" fill="#000000" font-size="5px" font-weight="bold" font-family="'Helvetica Neue', Helvetica, Arial-Unicode, Arial, Sans-serif">from the Noun Project</text></svg>